<svg width="308" height="204" viewBox="0 0 308 204" fill="none" xmlns="http://www.w3.org/2000/svg">
<g clip-path="url(#clip0_5_11)">
<path d="M110.48 117.404C121.035 98.8984 141.169 84.6893 162.483 86.0581C146.761 103.097 137.594 125.13 136.602 148.257C136.252 157.178 136.795 167.136 130.852 173.815C127.154 177.972 121.502 179.985 115.945 180.407C110.387 180.829 104.831 179.828 99.3474 178.832L98.0173 179.239C97.5109 157.958 99.9245 135.909 110.48 117.404Z" fill="#F0F0F0"/>
<path d="M162.515 86.5037C146.753 94.0657 133.314 106.695 125.064 122.098C123.28 125.428 121.762 128.96 121.099 132.695C120.437 136.432 120.9 139.99 122.18 143.539C123.351 146.784 124.926 149.967 125.285 153.439C125.663 157.099 124.312 160.521 121.88 163.236C118.905 166.559 114.909 168.618 110.931 170.496C106.514 172.581 101.893 174.678 98.7647 178.57C98.3857 179.041 97.6737 178.427 98.0521 177.956C103.495 171.185 112.811 169.912 119.272 164.458C122.287 161.912 124.55 158.446 124.407 154.385C124.282 150.833 122.661 147.549 121.447 144.274C120.173 140.835 119.537 137.377 119.994 133.711C120.462 129.96 121.845 126.361 123.535 123C127.348 115.42 132.565 108.462 138.541 102.447C145.41 95.5322 153.415 89.8399 162.21 85.6159C162.754 85.3547 163.056 86.2441 162.515 86.5037Z" fill="white"/>
<path d="M127.481 116.95C125.064 115.189 123.355 112.63 122.657 109.729C121.96 106.828 122.32 103.774 123.673 101.113C123.948 100.575 124.799 100.977 124.523 101.515C123.259 103.991 122.924 106.835 123.579 109.535C124.234 112.236 125.836 114.613 128.096 116.24C128.586 116.594 127.968 117.302 127.481 116.95Z" fill="white"/>
<path d="M121.369 141.972C127.424 141.09 132.922 137.966 136.769 133.223C137.15 132.753 137.862 133.367 137.481 133.836C133.47 138.764 127.741 142.003 121.438 142.907C120.837 142.993 120.772 142.057 121.369 141.972V141.972Z" fill="white"/>
<path d="M145.875 96.6866C146.668 97.5621 147.666 98.2277 148.78 98.6236C149.895 99.0196 151.09 99.1335 152.26 98.9551C152.859 98.8618 152.924 99.7981 152.328 99.8908C151.035 100.082 149.715 99.9544 148.483 99.5197C147.251 99.0849 146.144 98.3561 145.26 97.3968C145.169 97.3134 145.113 97.1985 145.104 97.0756C145.095 96.9527 145.134 96.831 145.211 96.7352C145.293 96.6416 145.409 96.584 145.533 96.5749C145.658 96.5658 145.78 96.6059 145.875 96.6866Z" fill="white"/>
<path d="M204.891 144.436C204.518 144.505 204.146 144.574 203.77 144.65C198.765 145.601 193.846 146.956 189.062 148.702C188.69 148.831 188.315 148.967 187.947 149.107C176.465 153.434 165.889 159.849 156.757 168.024C153.126 171.281 149.748 174.808 146.654 178.575C142.382 183.778 138.164 189.758 132.581 193.15C132.002 193.51 131.402 193.835 130.783 194.121L98.6186 180.825C98.5607 180.758 98.4994 180.698 98.4412 180.631L97.1326 180.159C97.2786 179.953 97.4344 179.744 97.5803 179.538C97.6645 179.419 97.7558 179.302 97.84 179.183C97.8984 179.104 97.9572 179.025 98.0053 178.951C98.0247 178.925 98.0444 178.899 98.0607 178.88C98.1088 178.805 98.1615 178.741 98.2066 178.674C99.0743 177.498 99.9518 176.327 100.839 175.159C100.842 175.152 100.842 175.152 100.852 175.148C107.636 166.268 115.223 157.875 123.847 150.896C124.106 150.686 124.369 150.469 124.643 150.265C128.548 147.141 132.702 144.34 137.065 141.891C139.458 140.557 141.917 139.345 144.434 138.259C150.94 135.466 157.847 133.71 164.902 133.056C178.964 131.755 193.288 134.95 204.074 143.755C204.349 143.981 204.618 144.203 204.891 144.436Z" fill="#F0F0F0"/>
<path d="M204.649 144.813C187.497 141.393 169.137 143.413 153.245 150.76C149.809 152.349 146.463 154.258 143.677 156.843C140.891 159.429 139.111 162.547 137.99 166.15C136.964 169.443 136.298 172.93 134.488 175.917C132.579 179.066 129.433 180.988 125.851 181.697C121.468 182.564 117.034 181.81 112.723 180.923C107.937 179.938 102.981 178.839 98.1318 180.069C97.5443 180.218 97.3465 179.301 97.9332 179.152C106.369 177.012 114.577 181.586 123.031 181.107C126.975 180.884 130.876 179.474 133.216 176.146C135.261 173.235 135.951 169.64 136.961 166.297C138.02 162.786 139.602 159.644 142.182 156.991C144.821 154.277 148.099 152.233 151.479 150.564C159.102 146.799 167.471 144.374 175.877 143.157C185.538 141.758 195.368 142.017 204.942 143.921C205.535 144.039 205.238 144.93 204.649 144.813V144.813Z" fill="white"/>
<path d="M158.284 148.101C157.419 145.245 157.6 142.175 158.795 139.44C159.991 136.705 162.123 134.483 164.811 133.17C165.356 132.907 165.792 133.738 165.247 134.002C162.742 135.22 160.756 137.29 159.648 139.839C158.54 142.388 158.382 145.248 159.204 147.903C159.382 148.48 158.461 148.674 158.284 148.101Z" fill="white"/>
<path d="M138.289 164.412C143.656 167.341 149.933 168.146 155.869 166.667C156.458 166.52 156.655 167.437 156.068 167.584C149.888 169.112 143.357 168.26 137.779 165.2C137.247 164.908 137.76 164.121 138.289 164.412Z" fill="white"/>
<path d="M185.212 142.959C185.316 144.133 185.711 145.264 186.361 146.249C187.012 147.233 187.898 148.042 188.939 148.601C189.474 148.886 188.961 149.673 188.429 149.39C187.281 148.766 186.304 147.872 185.583 146.786C184.862 145.699 184.419 144.453 184.292 143.157C184.27 143.036 184.295 142.911 184.362 142.807C184.429 142.703 184.533 142.629 184.653 142.599C184.775 142.574 184.902 142.597 185.007 142.665C185.111 142.732 185.185 142.838 185.212 142.959Z" fill="white"/>
<path d="M143.62 166.373C139.115 144.666 133.485 137.428 133.485 137.428L131.333 135.766L128.747 133.763L128.759 133.506L128.146 133.298L128.001 133.186L127.765 133.006L127.727 133.046L127.647 133.129L115.941 129.163L101.091 124.136L94.2138 115.227C93.0938 113.777 91.6519 112.604 90.001 111.801C88.3502 110.999 86.5353 110.588 84.6987 110.602L62.7363 110.764C59.7667 110.786 56.9128 111.914 54.7355 113.927L40.3 127.272L17.8067 137.978L17.7687 137.941L17.5325 138.109L14.0571 139.765L14.2005 140.509L12.0494 142.056C12.0494 142.056 6.41875 148.79 1.91417 168.988C0.768259 174.128 0.204198 185.152 0.000602664 198.738C-0.00962392 199.425 0.117334 200.107 0.374092 200.745C0.63085 201.383 1.01229 201.964 1.49622 202.453C1.98016 202.943 2.55694 203.332 3.19303 203.597C3.82912 203.863 4.51183 204 5.20145 204H125.343V204H140.338C141.027 204 141.709 203.863 142.345 203.598C142.981 203.332 143.557 202.944 144.041 202.455C144.525 201.966 144.906 201.386 145.164 200.749C145.421 200.111 145.548 199.43 145.539 198.743C145.34 183.96 144.776 171.946 143.62 166.373Z" fill="#EEE5E9"/>
<path d="M159.034 18.9304C154.36 18.9304 149.877 20.781 146.572 24.0751C143.267 27.3691 141.41 31.8368 141.41 36.4953C141.41 41.1538 143.267 45.6215 146.572 48.9156C149.877 52.2096 154.36 54.0602 159.034 54.0602H290.376C295.05 54.0602 299.533 52.2096 302.838 48.9156C306.143 45.6215 308 41.1538 308 36.4953C308 31.8368 306.143 27.3691 302.838 24.0751C299.533 20.781 295.05 18.9304 290.376 18.9304H159.034Z" fill="#E5E5E5"/>
<path d="M159.034 22.4852C155.306 22.4852 151.731 23.9613 149.094 26.5887C146.458 29.2161 144.977 32.7796 144.977 36.4953C144.977 40.211 146.458 43.7746 149.094 46.402C151.731 49.0294 155.306 50.5054 159.034 50.5054H290.376C294.104 50.5054 297.68 49.0294 300.316 46.402C302.952 43.7746 304.433 40.211 304.433 36.4953C304.433 32.7796 302.952 29.2161 300.316 26.5887C297.68 23.9613 294.104 22.4852 290.376 22.4852H159.034Z" fill="white"/>
<path d="M77.1664 102.379C93.0572 102.379 105.939 89.54 105.939 73.7026C105.939 57.8651 93.0572 45.0264 77.1664 45.0264C61.2756 45.0264 48.3936 57.8651 48.3936 73.7026C48.3936 89.54 61.2756 102.379 77.1664 102.379Z" fill="#FFB6B6"/>
<path d="M69.8058 100.975C69.6829 100.705 69.5603 100.434 69.438 100.163C69.4852 100.164 69.5318 100.171 69.5789 100.172L69.8058 100.975Z" fill="#2F2E41"/>
<path d="M47.5934 46.3304C49.0487 45.1734 50.7495 44.1089 52.6102 44.1687C54.4707 44.2285 56.3574 45.9032 55.972 47.7183C59.3895 41.6877 64.8291 37.0494 71.3361 34.6177C77.843 32.1859 85.0015 32.1161 91.5549 34.4205C96.1792 36.0465 100.714 39.2995 101.776 44.0706C102.049 45.2954 102.108 46.6383 102.875 47.6329C103.842 48.8868 105.693 49.1705 107.217 48.7294C107.233 48.7249 107.248 48.7205 107.263 48.716C107.521 48.6283 107.799 48.6197 108.061 48.6912C108.323 48.7627 108.558 48.9111 108.735 49.1171C108.912 49.3231 109.023 49.5773 109.053 49.8467C109.084 50.1162 109.032 50.3886 108.906 50.6286L107.597 53.0606C109.247 53.4271 110.96 53.3907 112.593 52.9548C112.864 52.8839 113.15 52.8984 113.413 52.9962C113.676 53.094 113.901 53.2704 114.059 53.5012C114.217 53.7319 114.3 54.0058 114.295 54.2851C114.291 54.5645 114.2 54.8356 114.035 55.0614C109.721 60.965 102.513 64.7772 95.1571 64.7324C89.9293 64.7006 84.6475 62.9049 79.5596 64.1031C77.5913 64.5666 75.7521 65.4634 74.1769 66.7278C72.6017 67.9921 71.3305 69.5919 70.4566 71.4098C69.5827 73.2276 69.1283 75.2174 69.1266 77.2331C69.1249 79.2488 69.5761 81.2394 70.447 83.0586C68.8839 81.3548 65.8624 81.7582 64.2635 83.4288C62.6648 85.0994 62.2508 87.5929 62.412 89.896C62.6583 93.4185 64.0431 96.7378 65.5029 99.9682C53.2633 99.5842 41.6866 91.0271 37.7899 79.4535C33.8768 67.8313 37.9778 53.9753 47.5934 46.3304Z" fill="#92DCE5"/>
<path opacity="0.2" d="M28.3199 159.819L36.39 203.58L41.2323 204L28.3199 159.819Z" fill="black"/>
<path opacity="0.2" d="M117.214 156.519L109.144 203.548L104.302 204L117.214 156.519Z" fill="black"/>
<path d="M54.4766 31.6029C52.9293 32.2468 51.3147 31.5411 50.6376 29.925C49.9501 28.2841 50.5922 26.6184 52.1643 25.9641C53.7366 25.3098 55.3225 26.0172 56.021 27.6846C56.7091 29.3269 56.074 30.9381 54.4766 31.6029ZM51.5126 22.7344L50.2823 23.2464C49.9749 23.3728 49.6312 23.3796 49.319 23.2655C49.0069 23.1514 48.7491 22.9247 48.5966 22.6302L48.5358 22.5116C47.212 20.1322 47.0604 17.2403 48.0876 13.9209C49.0392 10.9433 49.4345 8.84908 48.6396 6.95186C47.7206 4.75833 45.7581 4.0712 43.2555 5.06658C42.2849 5.47052 41.976 5.46408 41.2122 6.21927C41.046 6.38554 40.848 6.51676 40.6299 6.6051C40.4117 6.69345 40.178 6.7371 39.9426 6.73348C39.715 6.73081 39.4902 6.68249 39.2818 6.59139C39.0733 6.5003 38.8854 6.3683 38.7293 6.20328C38.4284 5.88524 38.2599 5.46528 38.2577 5.02819C38.2554 4.5911 38.4197 4.16946 38.7173 3.84841C40.0012 2.50895 41.5498 1.44927 43.2652 0.736236C48.6422 -1.50147 51.349 1.80218 52.5877 4.75865C53.7993 7.6504 53.1177 10.3335 52.0227 13.8083C51.105 16.6957 51.1585 18.8352 52.2009 20.9625C52.2761 21.1234 52.318 21.2977 52.324 21.4751C52.3299 21.6524 52.2999 21.8291 52.2356 21.9946C52.1713 22.1601 52.0741 22.311 51.9499 22.4381C51.8257 22.5652 51.6769 22.666 51.5126 22.7344L51.5126 22.7344Z" fill="#92DCE5"/>
<path d="M188.046 44.8726H161.914C161.831 44.8732 161.749 44.8573 161.672 44.8261C161.595 44.7948 161.525 44.7487 161.466 44.6904C161.407 44.6321 161.36 44.5627 161.329 44.4863C161.297 44.4099 161.28 44.328 161.28 44.2453C161.28 44.1625 161.297 44.0806 161.329 44.0042C161.36 43.9278 161.407 43.8585 161.466 43.8002C161.525 43.7419 161.595 43.6958 161.672 43.6645C161.749 43.6332 161.831 43.6174 161.914 43.618H188.046C188.212 43.6191 188.371 43.6857 188.488 43.8032C188.606 43.9207 188.671 44.0796 188.671 44.2453C188.671 44.4109 188.606 44.5698 188.488 44.6874C188.371 44.8049 188.212 44.8715 188.046 44.8726Z" fill="#92DCE5"/>
<path d="M221.196 45.0817H195.064C194.981 45.0822 194.899 45.0664 194.822 45.0352C194.745 45.0039 194.675 44.9578 194.616 44.8995C194.557 44.8412 194.511 44.7718 194.479 44.6954C194.447 44.619 194.43 44.5371 194.43 44.4544C194.43 44.3716 194.447 44.2897 194.479 44.2133C194.511 44.1369 194.557 44.0676 194.616 44.0093C194.675 43.951 194.745 43.9048 194.822 43.8736C194.899 43.8423 194.981 43.8265 195.064 43.827H221.196C221.279 43.8265 221.361 43.8423 221.438 43.8736C221.515 43.9048 221.585 43.951 221.644 44.0093C221.703 44.0676 221.75 44.1369 221.782 44.2133C221.813 44.2897 221.83 44.3716 221.83 44.4544C221.83 44.5371 221.813 44.619 221.782 44.6954C221.75 44.7718 221.703 44.8412 221.644 44.8995C221.585 44.9578 221.515 45.0039 221.438 45.0352C221.361 45.0664 221.279 45.0822 221.196 45.0817Z" fill="#92DCE5"/>
<path d="M254.346 45.2908H228.214C228.048 45.2897 227.889 45.2231 227.772 45.1056C227.655 44.988 227.589 44.8291 227.589 44.6635C227.589 44.4978 227.655 44.3389 227.772 44.2214C227.889 44.1039 228.048 44.0373 228.214 44.0362H254.346C254.429 44.0356 254.512 44.0514 254.588 44.0827C254.665 44.114 254.735 44.1601 254.794 44.2184C254.853 44.2767 254.9 44.346 254.932 44.4224C254.964 44.4988 254.98 44.5807 254.98 44.6635C254.98 44.7462 254.964 44.8281 254.932 44.9045C254.9 44.9809 254.853 45.0503 254.794 45.1086C254.735 45.1669 254.665 45.213 254.588 45.2443C254.512 45.2755 254.429 45.2914 254.346 45.2908H254.346Z" fill="#92DCE5"/>
<path d="M287.496 45.4999H261.364C261.198 45.4988 261.039 45.4322 260.922 45.3147C260.805 45.1971 260.739 45.0382 260.739 44.8726C260.739 44.7069 260.805 44.548 260.922 44.4305C261.039 44.313 261.198 44.2464 261.364 44.2453H287.496C287.663 44.2464 287.822 44.313 287.939 44.4305C288.056 44.548 288.121 44.7069 288.121 44.8726C288.121 45.0382 288.056 45.1971 287.939 45.3147C287.822 45.4322 287.663 45.4988 287.496 45.4999Z" fill="#92DCE5"/>
<path d="M174.923 39.0993C177.605 39.0993 179.779 36.9321 179.779 34.2588C179.779 31.5854 177.605 29.4182 174.923 29.4182C172.24 29.4182 170.066 31.5854 170.066 34.2588C170.066 36.9321 172.24 39.0993 174.923 39.0993Z" fill="#92DCE5"/>
<path d="M208.273 39.0993C210.955 39.0993 213.13 36.9321 213.13 34.2588C213.13 31.5854 210.955 29.4182 208.273 29.4182C205.591 29.4182 203.416 31.5854 203.416 34.2588C203.416 36.9321 205.591 39.0993 208.273 39.0993Z" fill="#92DCE5"/>
<path d="M241.623 39.0993C244.306 39.0993 246.48 36.9321 246.48 34.2588C246.48 31.5854 244.306 29.4182 241.623 29.4182C238.941 29.4182 236.766 31.5854 236.766 34.2588C236.766 36.9321 238.941 39.0993 241.623 39.0993Z" fill="#92DCE5"/>
<path d="M274.973 39.0993C277.656 39.0993 279.83 36.9321 279.83 34.2588C279.83 31.5854 277.656 29.4182 274.973 29.4182C272.291 29.4182 270.117 31.5854 270.117 34.2588C270.117 36.9321 272.291 39.0993 274.973 39.0993Z" fill="#92DCE5"/>
</g>
<defs>
<clipPath id="clip0_5_11">
<rect width="308" height="204" fill="white"/>
</clipPath>
</defs>
</svg>
