<svg width="282" height="258" viewBox="0 0 282 258" fill="none" xmlns="http://www.w3.org/2000/svg">
<g clip-path="url(#clip0_5_133)">
<path d="M180.671 206.04L183.381 212.111C181.178 211.761 179.13 213.641 179.084 216.055C179.038 218.469 181.002 220.981 183.205 221.324C182.784 223.198 180.967 224.025 179.39 224.782C177.813 225.54 176.114 226.796 176.231 228.793C176.325 230.397 177.652 231.813 179.062 232.382C180.471 232.951 181.949 232.864 183.377 232.768C181.214 235.029 181.003 239.278 182.902 242.327C184.802 245.376 188.595 246.877 191.435 245.703C189.428 248.198 189.864 252.766 192.355 255.34C194.866 257.936 198.504 258.187 201.685 257.913C209.785 257.229 217.504 254.172 223.874 249.126C226.306 247.195 228.577 244.924 229.965 241.962C231.352 239 231.761 235.25 230.468 231.879C230.817 236.102 235.046 239.437 238.851 239.623C242.656 239.81 245.978 237.668 248.801 235.226C252.556 231.978 256.032 227.426 255.516 221.809C255.261 219.028 254.046 216.354 252.854 213.763L250.543 208.741C249.61 206.714 248.655 204.652 247.251 202.95C245.847 201.249 243.898 199.932 241.947 199.944C242.393 197.908 242.841 195.796 242.467 193.633C242.094 191.47 240.663 189.23 238.716 188.723C236.239 188.078 234.14 190.363 231.649 190.147C229.252 189.94 227.271 187.536 224.943 186.584C223.985 186.17 222.926 186.044 221.897 186.221C220.869 186.399 219.914 186.873 219.15 187.585C217.675 189.024 217.06 191.456 217.589 193.758C218.053 195.774 219.288 197.551 220.037 199.496C220.786 201.44 220.902 203.94 219.463 205.001C217.727 206.283 215.084 204.539 213.727 202.43C212.371 200.321 211.592 197.767 209.876 195.993C207.852 193.899 204.682 193.408 202.597 194.866C200.513 196.323 199.716 199.587 200.767 202.362C201.626 204.63 203.594 206.925 202.912 209.061C202.19 211.319 199.033 211.033 197.128 209.437C195.224 207.842 193.959 205.438 192.078 203.807C190.167 202.15 187.672 201.424 185.482 201.888C184.371 202.145 183.343 202.679 182.492 203.438C181.642 204.197 180.996 205.159 180.616 206.233" fill="#E6E6E6"/>
<path d="M224.544 188.977L218.922 191.587C218.076 192.004 217.118 192.133 216.192 191.955C215.376 191.762 214.824 191.263 214.679 190.586L213.371 184.48C213.124 183.328 214.079 181.965 215.641 181.24L218.746 179.798C220.308 179.073 221.966 179.223 222.688 180.154L226.514 185.091C226.939 185.639 226.964 186.382 226.585 187.129C226.125 187.951 225.408 188.6 224.544 188.977Z" fill="#3F3D56"/>
<path d="M50.1988 76.1197C55.4848 61.6626 63.7338 48.4678 74.4176 37.3805C83.4819 27.9775 97.5891 28.3682 97.5891 28.3682L97.6697 28.2682C101.065 24.0843 105.621 20.9955 110.766 19.3894C115.912 17.7832 121.417 17.7311 126.592 19.2397C127.937 19.6254 128.971 19.7964 129.463 19.6246C138.434 16.4872 138.013 9.40579 145.753 3.70105C159.304 -6.2876 204.255 5.15421 210.593 23.5345C215.73 38.4313 238.661 45.6517 247.229 57.0466C248.568 58.8283 249.883 60.6307 251.172 62.4537C251.776 63.3006 252.374 64.154 252.965 65.0137C259.034 73.7974 264.48 82.9961 269.26 92.542C272.395 98.7787 275.12 105.213 277.417 111.804C286.351 137.904 283.296 157.35 258.66 152.546C255.744 151.976 252.898 151.466 250.122 151.016C246.102 150.36 242.222 149.821 238.483 149.4C233.447 148.827 228.656 148.452 224.11 148.275C222.581 148.213 221.081 148.172 219.608 148.151C197.837 147.849 181.688 151.944 169.385 158.3C167.299 159.375 165.323 160.512 163.456 161.711C160.604 163.533 157.881 165.549 155.306 167.744C151.743 170.8 148.457 174.164 145.487 177.798L145.323 177.998C130.934 195.587 126.198 215.059 116.188 218.487C73.3996 233.145 46.3376 180.009 43.5623 128.031C43.4222 125.411 43.3448 122.8 43.3301 120.195C43.3214 119.031 43.3271 117.87 43.3473 116.713C43.3912 113.692 43.5245 110.69 43.7476 107.725C43.831 106.592 43.9276 105.464 44.0376 104.343C44.1589 103.133 44.2907 101.931 44.4431 100.736C45.5316 91.9778 47.4359 83.6452 50.1988 76.1197Z" fill="#92DCE5"/>
<path d="M182.822 104.718C179.405 106.308 179.349 113.429 180.42 115.736L182.362 119.912L194.74 114.166L192.798 109.989C191.724 107.683 186.242 103.134 182.822 104.718Z" fill="#3F3D56"/>
<path d="M149.56 164.679C149.342 164.679 149.128 164.626 148.935 164.526C148.741 164.425 148.575 164.28 148.451 164.101C148.326 163.923 148.246 163.717 148.218 163.501C148.189 163.285 148.214 163.066 148.288 162.862C148.349 162.695 148.442 162.541 148.562 162.41C148.683 162.28 148.828 162.174 148.989 162.1L212.911 132.422C213.072 132.347 213.246 132.305 213.424 132.297C213.601 132.29 213.779 132.317 213.946 132.378C214.113 132.439 214.266 132.532 214.397 132.652C214.528 132.772 214.633 132.917 214.708 133.078C214.859 133.403 214.875 133.775 214.752 134.112C214.628 134.449 214.377 134.723 214.051 134.874H214.051L150.13 164.552C149.951 164.635 149.757 164.679 149.56 164.679Z" fill="#3F3D56"/>
<path d="M199.561 116.829L181.289 125.312L209.952 186.959L228.223 178.476L199.561 116.829Z" fill="#E6E6E6"/>
<path d="M130.97 39.2266C127.553 40.8165 127.497 47.9374 128.568 50.2448L130.51 54.4211L142.888 48.6744L140.946 44.498C139.872 42.1917 134.39 37.6422 130.97 39.2266Z" fill="#3F3D56"/>
<path d="M207.536 196.063L201.913 198.674C201.068 199.091 200.11 199.22 199.184 199.042C198.368 198.849 197.816 198.35 197.671 197.673L196.363 191.567C196.116 190.415 197.071 189.052 198.633 188.327L201.738 186.885C203.3 186.16 204.958 186.309 205.68 187.241L209.506 192.178C209.93 192.726 209.956 193.468 209.577 194.216C209.117 195.038 208.4 195.687 207.536 196.063Z" fill="#3F3D56"/>
<path d="M190.249 204.634L184.627 207.244C183.781 207.661 182.823 207.791 181.897 207.612C181.081 207.419 180.53 206.92 180.385 206.243L179.076 200.137C178.829 198.985 179.784 197.622 181.346 196.897L184.451 195.455C186.013 194.73 187.671 194.88 188.393 195.811L192.219 200.749C192.644 201.296 192.669 202.039 192.291 202.787C191.83 203.609 191.113 204.257 190.249 204.634Z" fill="#3F3D56"/>
<path d="M152.585 61.824L134.313 70.3073L192.25 194.918L210.522 186.435L152.585 61.824Z" fill="#E6E6E6"/>
<path d="M171.544 126.061L169.493 121.553L170.674 121.009L172.718 125.502L202.316 191.081L201.137 191.629" fill="#3F3D56"/>
<path d="M194.668 122.314L192.618 117.805L193.798 117.261L195.842 121.755L225.44 187.334L224.261 187.881" fill="#3F3D56"/>
<path d="M161.209 71.7964L136.452 83.2908C134.876 80.8404 130.124 68.283 131.191 64.5573L130.39 61.0044L147.485 53.0677L149.773 55.8804C153.169 56.9219 159.781 68.7166 161.209 71.7964Z" fill="#E6E6E6"/>
<path d="M148.199 53.2198L130.558 61.4099C129.907 61.7122 129.214 61.6011 129.009 61.1617C128.98 61.0984 128.962 61.0304 128.956 60.9609L128.043 51.2281C128.004 50.8114 128.36 50.3391 128.906 50.086L140.604 44.6545C141.149 44.4014 141.741 44.4335 142.034 44.7321L148.889 51.7063C149.24 52.063 149.049 52.6736 148.464 53.07C148.38 53.127 148.291 53.177 148.199 53.2198Z" fill="#E6E6E6"/>
<path d="M162.035 129.473C161.844 129.473 161.654 129.451 161.468 129.406C161.206 129.352 160.961 129.238 160.75 129.075C160.539 128.911 160.368 128.701 160.25 128.461L149.465 105.265C149.019 104.305 149.618 103.077 150.801 102.527L166.593 95.1953C167.776 94.6458 169.102 94.9806 169.549 95.9407L180.334 119.137C180.441 119.382 180.492 119.647 180.481 119.914C180.47 120.181 180.398 120.442 180.271 120.676C179.994 121.208 179.545 121.63 178.998 121.875L163.206 129.207C162.839 129.379 162.44 129.47 162.035 129.473Z" fill="#3F3D56"/>
<path d="M164.195 132.984L145.923 141.467L174.585 203.114L192.857 194.63L164.195 132.984Z" fill="#E6E6E6"/>
<path d="M141.684 54.2366L136.326 56.7243C135.292 57.2044 133.897 56.4045 133.216 54.9414C132.536 53.4783 132.824 51.897 133.858 51.417L139.216 48.9292C140.25 48.4491 141.645 49.2491 142.326 50.7122C143.006 52.1753 142.718 53.7565 141.684 54.2366Z" fill="#3F3D56"/>
<path d="M147.812 120.707C144.395 122.297 144.339 129.418 145.41 131.725L147.352 135.902L159.73 130.155L157.788 125.979C156.714 123.672 151.232 119.123 147.812 120.707Z" fill="#3F3D56"/>
<path d="M91.0484 106.493C89.8416 107.297 88.6064 105.384 89.8364 104.616C91.0432 103.813 92.2784 105.725 91.0484 106.493Z" fill="#E6E6E6"/>
<path d="M216.671 79.0133C215.464 79.8168 214.229 77.9043 215.459 77.1365C216.666 76.333 217.901 78.2455 216.671 79.0133Z" fill="#E6E6E6"/>
<path d="M131.048 100.872C129.841 101.676 128.606 99.7632 129.836 98.9954C131.042 98.1919 132.278 100.104 131.048 100.872Z" fill="#E6E6E6"/>
<path d="M91.0484 175.817C89.8416 176.621 88.6064 174.708 89.8364 173.94C91.0432 173.137 92.2784 175.049 91.0484 175.817Z" fill="#E6E6E6"/>
<path d="M152.61 19.3696C151.403 20.1731 150.168 18.2606 151.398 17.4928C152.604 16.6893 153.84 18.6018 152.61 19.3696Z" fill="#E6E6E6"/>
<path d="M93.2359 56.2175C92.029 57.0211 90.7938 55.1086 92.0239 54.3407C93.2307 53.5372 94.4659 55.4497 93.2359 56.2175Z" fill="#E6E6E6"/>
<path d="M178.634 45.6539L177.866 45.4856L178.034 44.7181L177.522 44.606L177.354 45.3735L176.586 45.2055L176.474 45.717L177.241 45.8853L177.073 46.6526L177.585 46.7647L177.754 45.9971L178.521 46.1654L178.634 45.6539Z" fill="#E6E6E6"/>
<path d="M53.6058 109.6L52.838 109.432L53.0061 108.665L52.4942 108.552L52.3258 109.32L51.5577 109.152L51.4455 109.663L52.2136 109.831L52.0455 110.599L52.5573 110.711L52.7258 109.944L53.4936 110.112L53.6058 109.6Z" fill="#E6E6E6"/>
<path d="M211.067 142.219C210.428 142.515 209.698 142.546 209.037 142.304C208.375 142.062 207.837 141.568 207.539 140.931L204.379 134.134C204.083 133.496 204.053 132.766 204.295 132.106C204.537 131.445 205.032 130.908 205.67 130.611C206.309 130.315 207.039 130.284 207.7 130.525C208.361 130.766 208.9 131.259 209.197 131.897L212.357 138.694C212.653 139.332 212.683 140.062 212.442 140.723C212.2 141.384 211.706 141.922 211.067 142.219Z" fill="#3F3D56"/>
<path d="M157.318 167.201C156.679 167.497 155.949 167.527 155.288 167.286C154.626 167.044 154.088 166.55 153.79 165.912L150.63 159.115C150.334 158.477 150.304 157.748 150.546 157.087C150.788 156.427 151.283 155.889 151.921 155.593C152.56 155.296 153.29 155.265 153.951 155.507C154.612 155.748 155.151 156.241 155.448 156.879L158.608 163.675C158.904 164.314 158.935 165.044 158.693 165.705C158.451 166.366 157.957 166.904 157.318 167.201Z" fill="#3F3D56"/>
<path d="M206.199 127.369L185.01 137.207C183.661 135.11 179.595 124.362 180.508 121.174L180.956 117.607L193.608 111.404L196.411 113.748C200.361 112.413 206.167 122.194 206.199 127.369Z" fill="#E6E6E6"/>
<path d="M196.362 126.687L191.004 129.175C189.97 129.655 188.396 128.472 187.497 126.537C186.598 124.603 186.707 122.638 187.741 122.158L193.099 119.67C194.133 119.19 195.707 120.374 196.606 122.308C197.505 124.242 197.396 126.207 196.362 126.687Z" fill="#3F3D56"/>
<path d="M150.919 139.488L148.869 134.98L150.049 134.436L152.093 138.93L181.691 204.509L180.512 205.056" fill="#3F3D56"/>
<path d="M171.189 143.359L150 153.196C146.874 151.583 142.097 141.03 145.498 137.163L145.946 133.596L158.598 127.393L161.401 129.737C164.308 130.628 169.967 140.723 171.189 143.359Z" fill="#E6E6E6"/>
<path d="M160.916 141.739L155.558 144.226C154.524 144.706 153.048 143.733 152.269 142.057C151.49 140.382 151.697 138.627 152.731 138.147L158.089 135.659C159.123 135.179 160.599 136.152 161.378 137.828C162.157 139.504 161.95 141.259 160.916 141.739Z" fill="#3F3D56"/>
<path d="M53.5275 96.1309C71.3038 96.1309 85.7143 81.7306 85.7143 63.967C85.7143 46.2034 71.3038 31.8032 53.5275 31.8032C35.7512 31.8032 21.3406 46.2034 21.3406 63.967C21.3406 81.7306 35.7512 96.1309 53.5275 96.1309Z" fill="#FF6584"/>
<path opacity="0.3" d="M185.498 97.4671L205.058 40.3812L183.58 96.7838C183.474 96.9176 183.401 97.0749 183.368 97.2425C183.334 97.4101 183.342 97.5832 183.389 97.7474C183.436 97.9117 183.521 98.0623 183.638 98.1869C183.755 98.3115 183.9 98.4064 184.061 98.4638C184.222 98.5212 184.395 98.5393 184.564 98.5168C184.734 98.4943 184.895 98.4317 185.036 98.3343C185.176 98.2368 185.292 98.1073 185.372 97.9565C185.452 97.8057 185.495 97.6379 185.498 97.4671H185.498Z" fill="#F0F0F0"/>
<path d="M235.357 63.4402C231.528 64.7119 227.284 65.961 222.623 67.1877C198.516 73.5303 166.202 78.4776 131.636 81.119C97.0689 83.7602 64.3784 83.7793 39.5863 81.1734C27.5093 79.9038 17.9571 78.0778 11.1951 75.7458C4.03609 73.2772 0.274353 70.3023 0.0142705 66.9043C-0.4922 60.2843 12.5804 54.4577 23.6363 50.7355L23.9357 51.6233C8.75312 56.7347 0.589727 62.1363 0.949157 66.8329C1.40674 72.8147 15.5252 77.7019 39.6844 80.2417C64.4219 82.8419 97.0521 82.822 131.564 80.185C166.076 77.5478 198.33 72.6102 222.384 66.2817C245.876 60.1017 259.087 53.126 258.629 47.1441C258.249 42.1775 248.452 37.9289 231.043 35.1802L231.189 34.255C243.839 36.2522 259.03 40.097 259.564 47.0727C259.824 50.4708 256.558 53.9824 249.858 57.51C246.039 59.5208 241.186 61.5046 235.357 63.4402Z" fill="#3F3D56"/>
<path d="M244.815 120.486C246.662 120.486 248.16 118.99 248.16 117.144C248.16 115.298 246.662 113.802 244.815 113.802C242.968 113.802 241.471 115.298 241.471 117.144C241.471 118.99 242.968 120.486 244.815 120.486Z" fill="#FF6584"/>
<path d="M266.065 211.044C267.912 211.044 269.409 209.548 269.409 207.702C269.409 205.857 267.912 204.36 266.065 204.36C264.218 204.36 262.721 205.857 262.721 207.702C262.721 209.548 264.218 211.044 266.065 211.044Z" fill="#F2F2F2"/>
<path d="M152.005 231.393C155.606 231.393 158.525 228.476 158.525 224.877C158.525 221.279 155.606 218.361 152.005 218.361C148.404 218.361 145.484 221.279 145.484 224.877C145.484 228.476 148.404 231.393 152.005 231.393Z" fill="#F2F2F2"/>
<path d="M102.318 145.155C104.165 145.155 105.663 143.659 105.663 141.813C105.663 139.968 104.165 138.471 102.318 138.471C100.471 138.471 98.9739 139.968 98.9739 141.813C98.9739 143.659 100.471 145.155 102.318 145.155Z" fill="#3F3D56"/>
<path d="M214.754 149.505L229.183 153.238L238.034 170.609L223.071 171.195L214.754 149.505Z" fill="#E6E6E6"/>
<path d="M181.448 124.463L189.39 132.403L209.56 175.982L205.846 179.188L181.448 124.463Z" fill="#CCCCCC"/>
<path d="M164.18 131.661L164.803 142.87L183.841 186.954L188.709 186.328L164.18 131.661Z" fill="#CCCCCC"/>
<path d="M163.66 176.944L155.889 189.654L161.618 208.287L172.778 198.311L163.66 176.944Z" fill="#E6E6E6"/>
<path d="M232.309 184.754C228.274 184.754 223.852 184.602 219.042 184.297C194.163 182.718 161.937 177.229 128.301 168.842C94.6651 160.454 63.6368 150.17 40.9325 139.884C29.8726 134.873 21.3841 130.129 15.7032 125.785C9.68865 121.187 7.05779 117.178 7.88342 113.871C9.49212 107.43 23.7365 106.02 35.4029 105.972L35.4068 106.909C19.3859 106.975 9.93432 109.528 8.79314 114.098C7.33946 119.919 19.195 129.006 41.3196 139.03C63.974 149.294 94.9452 159.559 128.528 167.933C162.111 176.307 194.277 181.786 219.101 183.362C243.344 184.901 258.083 182.445 259.536 176.624C260.743 171.791 252.787 164.671 237.134 156.576L237.565 155.744C248.938 161.626 262.141 170.063 260.446 176.851C259.62 180.157 255.413 182.46 247.941 183.696C243.682 184.401 238.451 184.754 232.309 184.754Z" fill="#3F3D56"/>
</g>
<defs>
<clipPath id="clip0_5_133">
<rect width="282" height="258" fill="white"/>
</clipPath>
</defs>
</svg>
