<svg width="322" height="214" viewBox="0 0 322 214" fill="none" xmlns="http://www.w3.org/2000/svg">
<path d="M163.123 60.1469C160.251 55.3943 156.849 50.3198 151.521 48.7679C145.351 46.9708 139.013 50.5409 133.636 54.0639C117.558 64.6001 102.074 76.0183 87.2554 88.2662L87.2716 88.4507C98.8083 87.6545 110.345 86.8582 121.882 86.0619C130.217 85.4866 138.839 84.8319 146.205 80.8854C149 79.3879 151.725 77.3875 154.892 77.2481C158.827 77.0749 162.258 79.8256 164.955 82.6995C180.905 99.6992 185.521 125.696 203.416 140.632C192.132 112.779 178.659 85.8667 163.123 60.1469Z" fill="#F2F2F2"/>
<path d="M261.168 204.336C259.404 202.107 258.684 201.585 256.944 199.335C242.777 180.996 229.461 162.038 216.996 142.461C208.53 129.164 200.483 115.613 192.856 101.806C189.225 95.2418 185.694 88.6263 182.262 81.9593C179.599 76.7898 176.995 71.5895 174.451 66.3582C173.724 64.864 173.017 63.363 172.313 61.8585C170.656 58.3206 169.029 54.7656 167.282 51.2758C165.292 47.2982 162.869 43.1283 159.214 40.456C157.55 39.19 155.561 38.4239 153.479 38.2474C150.503 38.0551 147.758 39.2847 145.177 40.6278C126.295 50.4823 108.617 62.8375 92.6282 76.8963C76.598 90.9867 62.2697 106.905 49.9353 124.328C49.558 124.867 48.6656 124.352 49.0465 123.809C50.5463 121.687 52.0758 119.587 53.635 117.51C73.0227 91.7025 96.7949 69.5096 123.865 51.9456C128.419 48.9916 133.059 46.1762 137.785 43.4993C140.167 42.1494 142.559 40.8167 144.992 39.5664C147.377 38.3402 149.91 37.2376 152.635 37.1963C161.908 37.0521 166.709 47.5627 170.007 54.6351C171.043 56.8608 172.092 59.0797 173.154 61.2918C177.166 69.69 181.332 78.0115 185.653 86.2562C188.319 91.3467 191.044 96.4074 193.828 101.438C202.49 117.105 211.696 132.454 221.448 147.486C234.365 167.398 247.18 184.987 261.896 203.608C262.301 204.123 261.577 204.858 261.168 204.336Z" fill="#E4E4E4"/>
<path d="M91.7117 71.7063C91.173 71.1052 90.6376 70.5041 90.0953 69.903C85.8192 65.1697 81.2309 60.4915 75.3588 57.7779C72.559 56.4433 69.5025 55.7342 66.4015 55.6999C63.1962 55.7102 60.0629 56.5517 57.1012 57.7299C55.701 58.2898 54.3316 58.9252 52.983 59.6018C51.442 60.3781 49.9285 61.2059 48.422 62.0406C45.594 63.6069 42.8028 65.2419 40.0482 66.9455C34.5674 70.3357 29.2582 73.9847 24.1207 77.8924C21.4575 79.919 18.8492 82.0119 16.2959 84.1713C13.9211 86.1773 11.5943 88.237 9.31553 90.3506C8.82822 90.8006 8.10062 90.0724 8.58792 89.6224C9.1885 89.0625 9.79596 88.5061 10.4034 87.9565C12.1194 86.404 13.8628 84.8812 15.6337 83.3882C18.863 80.6609 22.1759 78.039 25.5724 75.5224C30.8542 71.6066 36.3177 67.9565 41.9631 64.5721C44.7841 62.8821 47.6441 61.2632 50.5428 59.7152C51.418 59.2481 52.3035 58.7912 53.1991 58.3584C55.2315 57.3324 57.3432 56.472 59.5138 55.7857C62.5885 54.7902 65.8416 54.4704 69.051 54.848C72.1499 55.2992 75.1355 56.3329 77.8504 57.8947C83.6159 61.1201 88.0876 66.1074 92.4393 70.9746C92.8787 71.4692 92.1544 72.2009 91.7117 71.7063Z" fill="#E4E4E4"/>
<path d="M209.845 120.755L223.661 115.698L230.521 113.186C232.755 112.369 234.983 111.438 237.293 110.852C239.3 110.278 241.431 110.305 243.422 110.93C245.199 111.588 246.824 112.597 248.203 113.896C249.612 115.195 250.923 116.596 252.125 118.088C253.618 119.884 255.09 121.699 256.568 123.508C262.667 130.975 268.728 138.474 274.748 146.005C280.768 153.536 286.747 161.099 292.687 168.694C298.641 176.308 304.554 183.953 310.426 191.631C311.146 192.571 311.864 193.512 312.582 194.454C312.979 194.974 313.874 194.461 313.471 193.934C307.556 186.179 301.599 178.456 295.601 170.765C289.589 163.056 283.534 155.379 277.439 147.735C271.343 140.091 265.206 132.48 259.028 124.903C257.489 123.015 255.947 121.129 254.403 119.245C253.1 117.657 251.813 116.05 250.384 114.572C247.761 111.857 244.485 109.458 240.563 109.393C238.257 109.355 236.025 110.087 233.883 110.863C231.573 111.699 229.269 112.551 226.962 113.395L213.05 118.488L209.572 119.761C208.954 119.987 209.221 120.984 209.845 120.755L209.845 120.755Z" fill="#E4E4E4"/>
<path d="M73.5407 63.7338C66.5199 60.1223 57.5288 60.8297 51.0771 65.3416C63.3832 67.4665 75.5545 70.3097 87.5289 73.8566C82.5564 70.9401 78.6667 66.3706 73.5407 63.7338Z" fill="#F2F2F2"/>
<path d="M51.008 65.3292L49.6564 66.4287C50.1136 66.0439 50.5888 65.6831 51.0771 65.3416C51.054 65.3376 51.031 65.3332 51.008 65.3292Z" fill="#F2F2F2"/>
<path d="M247.683 120.806C246.323 119.149 244.853 117.414 242.819 116.741L240.919 116.816C255.376 142.384 274.902 164.725 298.297 182.468C281.426 161.914 264.554 141.36 247.683 120.806Z" fill="#F2F2F2"/>
<path d="M129.585 107.137C130.464 110.333 132.444 113.115 135.175 114.99C136.23 115.71 137.479 116.4 137.841 117.626C138.031 118.408 137.914 119.232 137.514 119.93C137.114 120.619 136.629 121.254 136.068 121.819L136.017 122.011C133.397 120.457 130.904 118.491 129.457 115.81C128.01 113.128 127.808 109.613 129.585 107.137" fill="#F2F2F2"/>
<path d="M216.811 183.198C217.69 186.394 219.67 189.176 222.401 191.051C223.457 191.77 224.706 192.461 225.067 193.687C225.257 194.468 225.14 195.293 224.74 195.991C224.341 196.68 223.855 197.315 223.294 197.88L223.243 198.072C220.623 196.518 218.131 194.552 216.684 191.87C215.236 189.188 215.034 185.674 216.811 183.198" fill="#F2F2F2"/>
<path d="M42.7332 177.953C43.612 181.148 45.592 183.93 48.3228 185.805C49.3786 186.525 50.6277 187.215 50.9888 188.441C51.1788 189.223 51.0618 190.048 50.6618 190.745C50.2625 191.434 49.7767 192.069 49.2163 192.634L49.1651 192.826C46.5452 191.272 44.0527 189.307 42.6055 186.625C41.1582 183.943 40.9562 180.428 42.7332 177.953" fill="#F2F2F2"/>
<path d="M243.054 38.2178C253.598 38.2178 262.146 29.6624 262.146 19.1089C262.146 8.55534 253.598 0 243.054 0C232.509 0 223.961 8.55534 223.961 19.1089C223.961 29.6624 232.509 38.2178 243.054 38.2178Z" fill="#FF6584"/>
<path d="M277.508 4.44764C268.255 3.19584 257.691 8.20148 255.293 17.2332C254.689 15.6273 253.59 14.2554 252.155 13.3155C250.721 12.3756 249.025 11.9165 247.313 12.0044C245.601 12.0924 243.961 12.7228 242.63 13.8047C241.299 14.8866 240.346 16.364 239.909 18.0233L240.969 18.7826C260.798 23.0744 281.324 22.9815 301.113 18.5105C294.677 11.7403 286.761 5.69942 277.508 4.44764Z" fill="#F0F0F0"/>
<path d="M237.826 29.9261C228.573 28.6744 218.009 33.68 215.611 42.7117C215.006 41.1059 213.908 39.7339 212.473 38.794C211.039 37.8541 209.343 37.395 207.631 37.4829C205.918 37.5709 204.278 38.2013 202.947 39.2832C201.617 40.3651 200.664 41.8425 200.227 43.5018L201.286 44.2612C221.115 48.5529 241.641 48.46 261.431 43.989C254.994 37.2189 247.079 31.1779 237.826 29.9261Z" fill="#F0F0F0"/>
<path d="M318.586 34.7438C318.547 34.7439 318.509 34.7379 318.473 34.7262C219.489 3.39583 132.249 7.49283 76.4931 16.4468C68.9053 17.6649 61.2973 19.0718 53.8803 20.6287C51.9867 21.0257 50.0222 21.4513 48.0415 21.8944C45.6759 22.4216 43.3418 22.9647 41.1037 23.5077C40.1371 23.7367 39.1894 23.9676 38.2605 24.2003C36.8536 24.5479 35.426 24.9102 33.8956 25.3082C32.1856 25.7495 30.4481 26.2124 28.7304 26.684C28.7241 26.6863 28.7177 26.6881 28.7112 26.6895L28.7114 26.6899C26.7712 27.2201 24.8413 27.7657 22.975 28.3105C21.9649 28.6025 20.9895 28.8904 20.0552 29.1747C19.9508 29.2037 19.8583 29.2315 19.7646 29.26L19.5639 29.3211C19.4476 29.3566 19.3328 29.3914 19.218 29.4243L19.2107 29.4265L19.2109 29.4269L18.9071 29.5213C18.5448 29.6311 18.1913 29.7383 17.8436 29.8451C8.65491 32.6801 3.60359 34.697 3.55369 34.7167C3.50806 34.735 3.45927 34.7442 3.41011 34.7436C3.36095 34.743 3.31239 34.7328 3.26718 34.7134C3.22198 34.6941 3.18103 34.666 3.14667 34.6308C3.1123 34.5956 3.0852 34.554 3.06691 34.5083C3.04862 34.4627 3.0395 34.4138 3.04006 34.3646C3.04063 34.3154 3.05087 34.2668 3.0702 34.2216C3.08954 34.1764 3.11758 34.1354 3.15274 34.101C3.1879 34.0666 3.22948 34.0395 3.27511 34.0211C3.32538 34.0014 8.40138 31.9743 17.6235 29.1287C17.9725 29.0215 18.3269 28.9142 18.6903 28.8041L18.9725 28.7163C18.9822 28.7126 18.9919 28.7097 19.0018 28.7068C19.116 28.6742 19.2301 28.6395 19.346 28.6043L19.547 28.5432C19.6472 28.5129 19.7459 28.4828 19.847 28.455C20.7749 28.1726 21.7535 27.8839 22.7662 27.5908C24.6333 27.0456 26.565 26.5 28.5067 25.9691C28.5127 25.9669 28.5189 25.9654 28.525 25.9636V25.9632C30.2487 25.4901 31.9926 25.0254 33.7081 24.5827C35.2408 24.1842 36.6711 23.8212 38.0805 23.4729C39.0133 23.2406 39.9628 23.0092 40.9292 22.7788C43.1698 22.2351 45.5087 21.6913 47.8784 21.163C49.8623 20.7195 51.8301 20.2929 53.7267 19.8955C61.1553 18.336 68.7752 16.9269 76.3745 15.707C132.21 6.74019 219.575 2.63658 318.698 34.012C318.784 34.0389 318.856 34.0955 318.904 34.1714C318.951 34.2474 318.969 34.3378 318.956 34.4262C318.942 34.5146 318.897 34.5952 318.829 34.6535C318.762 34.7117 318.675 34.7438 318.586 34.7438Z" fill="#CCCCCC"/>
<path d="M98.4529 157.307C98.3232 156.928 98.105 156.585 97.8164 156.307C97.7099 156.208 97.5946 156.119 97.472 156.041C96.4949 155.389 95.0349 155.243 94.1065 156.041C94.013 156.122 93.9266 156.211 93.8482 156.307C93.5712 156.648 93.2867 156.981 92.9947 157.307C92.5155 157.854 92.0251 158.383 91.5122 158.896C91.3662 159.038 91.2202 159.184 91.0704 159.327C90.9843 159.413 90.8982 159.495 90.8121 159.578C90.4827 159.893 90.1458 160.196 89.8051 160.496C89.6254 160.657 89.4457 160.814 89.2623 160.968C88.989 161.197 88.7157 161.425 88.4387 161.646C88.4125 161.665 88.3863 161.684 88.3601 161.706C88.3526 161.71 88.3488 161.717 88.3413 161.721C88.3376 161.721 88.3339 161.721 88.3301 161.729C88.32 161.733 88.311 161.739 88.3039 161.747C88.2215 161.804 88.1654 161.841 88.1242 161.875C88.1392 161.867 88.1542 161.856 88.1691 161.848C88.1018 161.901 88.0306 161.953 87.9632 162.006C87.3081 162.489 86.638 162.954 85.9529 163.388C84.2579 164.474 82.4776 165.42 80.6295 166.217C80.506 166.266 80.3787 166.318 80.2514 166.367C75.4126 168.351 70.1637 169.125 64.9587 168.623C64.4271 168.582 63.8955 168.525 63.3639 168.454C62.75 168.364 62.1398 168.256 61.5333 168.132C59.2245 167.671 56.9654 166.988 54.7873 166.094C52.0628 164.845 49.4715 163.323 47.053 161.552C46.6787 161.286 46.3006 161.02 45.9224 160.762C46.353 159.705 46.776 158.649 47.1878 157.585C47.3937 157.071 47.5921 156.558 47.7868 156.041C49.3179 152.058 50.7555 148.038 52.1331 144.002C53.5257 139.914 54.8397 135.803 56.0751 131.668C56.2024 131.248 56.326 130.828 56.4458 130.409C57.0934 128.224 57.7148 126.035 58.3101 123.841C58.3662 123.627 58.4261 123.417 58.4785 123.204C58.6507 122.574 58.8192 121.945 58.9839 121.315C59.3583 119.895 58.5122 118.198 57.0223 117.857C56.3049 117.673 55.5441 117.775 54.9003 118.141C54.2564 118.507 53.7797 119.109 53.5707 119.82C53.4097 120.427 53.2487 121.03 53.084 121.637C52.2941 124.571 51.463 127.495 50.5907 130.409C50.4635 130.828 50.3362 131.248 50.2089 131.668C48.2847 138.015 46.172 144.298 43.8709 150.518C43.5939 151.271 43.3131 152.022 43.0286 152.77C42.8901 153.137 42.7516 153.504 42.6093 153.871C42.3361 154.595 42.0553 155.318 41.7745 156.041C41.6135 156.464 41.4488 156.888 41.2841 157.307C41.1756 157.573 41.0707 157.839 40.9659 158.102C39.8985 157.718 38.7927 157.452 37.6678 157.307L37.4881 157.285C36.616 157.18 35.734 157.187 34.8638 157.307C33.5614 157.459 32.3083 157.896 31.1931 158.586C30.0779 159.276 29.1277 160.203 28.4098 161.301C26.6241 164.115 26.6466 168.139 29.1511 170.53C31.7304 172.992 35.635 172.973 38.6711 171.433C40.28 170.562 41.6366 169.289 42.6093 167.739C42.982 167.176 43.3244 166.595 43.6351 165.996C43.7137 166.049 43.7923 166.101 43.8709 166.157C44.1704 166.367 44.4699 166.581 44.7657 166.791C46.4889 168.04 48.3048 169.156 50.1977 170.129C54.2677 172.154 58.6488 173.48 63.1581 174.052C63.2591 174.063 63.3565 174.078 63.4575 174.089C63.9554 174.153 64.4571 174.202 64.9587 174.243C72.1548 174.786 79.3596 173.312 85.7657 169.987C86.3086 169.706 86.8464 169.411 87.3792 169.102C88.2066 168.623 89.0152 168.113 89.8051 167.574C90.2356 167.281 90.6549 166.985 91.0704 166.674C92.8863 165.336 94.5789 163.837 96.1281 162.197C96.7158 161.579 97.2786 160.94 97.8164 160.282C98.325 159.744 98.6182 159.037 98.64 158.296C98.6371 157.958 98.5737 157.623 98.4529 157.307ZM36.4623 166.232C36.541 166.176 36.6196 166.116 36.6944 166.056C36.672 166.112 36.5634 166.176 36.4623 166.232H36.4623ZM37.664 165.022C37.5779 165.119 37.4993 165.217 37.4132 165.314C37.1513 165.608 36.8699 165.883 36.5709 166.139C36.5297 166.176 36.4848 166.214 36.4399 166.247C36.4394 166.247 36.4389 166.247 36.4384 166.248C36.438 166.248 36.4376 166.248 36.4372 166.248C36.4369 166.249 36.4366 166.249 36.4364 166.25C36.4362 166.25 36.4361 166.251 36.4361 166.251C36.3821 166.275 36.3295 166.303 36.2789 166.333C36.1179 166.431 35.9532 166.521 35.7847 166.603C35.4549 166.725 35.1156 166.819 34.7702 166.884C34.5049 166.904 34.2385 166.906 33.9728 166.892H33.9653C33.782 166.851 33.6008 166.801 33.4225 166.742C33.3327 166.697 33.2466 166.644 33.1605 166.592C33.1268 166.562 33.0968 166.532 33.0781 166.513C33.0415 166.48 33.0077 166.444 32.9771 166.405C32.9771 166.404 32.977 166.404 32.9768 166.403C32.9766 166.403 32.9763 166.402 32.976 166.402C32.9756 166.402 32.9752 166.401 32.9747 166.401C32.9743 166.401 32.9738 166.401 32.9733 166.401C32.9321 166.326 32.8872 166.251 32.846 166.176C32.8439 166.174 32.8426 166.171 32.8423 166.169C32.8123 166.075 32.7861 165.977 32.7637 165.88C32.7555 165.709 32.7568 165.538 32.7674 165.367C32.8176 165.127 32.8852 164.892 32.9696 164.662C33.0454 164.5 33.1316 164.342 33.2279 164.19C33.2354 164.175 33.2728 164.115 33.314 164.048C33.3177 164.044 33.3177 164.044 33.3177 164.04C33.3739 163.977 33.43 163.909 33.4899 163.849C33.591 163.737 33.6996 163.639 33.8081 163.538C34.0193 163.4 34.238 163.274 34.4633 163.16C34.8207 163.033 35.1874 162.934 35.5601 162.864C36.1098 162.82 36.6623 162.825 37.2111 162.879C37.7309 162.969 38.2437 163.096 38.746 163.257C38.4416 163.849 38.095 164.417 37.709 164.958C37.694 164.981 37.679 165.003 37.664 165.022ZM33.5011 163.789C33.4682 163.842 33.4292 163.891 33.3851 163.935C33.4148 163.88 33.4541 163.831 33.5011 163.789Z" fill="#FF6584"/>
<path d="M87.1995 119.041C87.1658 120.217 87.1321 121.394 87.0984 122.57C87.0273 125.182 86.9536 127.795 86.8775 130.409C86.7989 133.35 86.7166 136.29 86.6304 139.229C86.5893 140.746 86.5468 142.264 86.5032 143.781C86.3871 147.869 86.2723 151.956 86.1588 156.041C86.1475 156.464 86.1326 156.884 86.1213 157.307C86.0652 159.334 86.009 161.361 85.9529 163.388C85.8892 165.588 85.8268 167.787 85.7657 169.987C85.7208 171.635 85.6746 173.285 85.6272 174.936C85.2903 186.9 84.9533 198.864 84.6164 210.827C84.6022 211.568 84.3018 212.275 83.7783 212.798C83.2548 213.322 82.5489 213.623 81.8087 213.637C81.0659 213.631 80.3552 213.333 79.8299 212.808C79.3047 212.282 79.007 211.571 79.001 210.827C79.1882 204.098 79.3778 197.369 79.57 190.639C79.7385 184.554 79.9094 178.469 80.0829 172.385C80.139 170.38 80.1952 168.374 80.2513 166.367C80.3374 163.347 80.4223 160.327 80.5059 157.307C80.5171 156.884 80.5321 156.464 80.5433 156.041C80.5508 155.67 80.5621 155.303 80.5733 154.932C80.738 149.068 80.9027 143.203 81.0674 137.337C81.1348 135.029 81.1997 132.719 81.2621 130.409C81.337 127.775 81.4119 125.142 81.4867 122.51C81.5204 121.353 81.5504 120.199 81.5841 119.041C81.5983 118.3 81.8987 117.593 82.4222 117.07C82.9457 116.546 83.6516 116.245 84.3918 116.231C85.1346 116.237 85.8452 116.535 86.3705 117.06C86.8958 117.586 87.1935 118.297 87.1995 119.041Z" fill="#FF6584"/>
<path d="M241.222 119.821C238.278 130.979 234.759 141.977 230.68 152.771C229.554 155.748 228.403 158.72 227.172 161.655L227.455 160.984C226.905 162.382 226.203 163.716 225.362 164.96C225.305 165.04 225.247 165.12 225.187 165.199C225.478 164.826 225.534 164.753 225.353 164.978C225.258 165.09 225.164 165.203 225.066 165.313C224.804 165.607 224.522 165.883 224.224 166.139C224.149 166.203 224.072 166.266 223.995 166.328L224.346 166.055C224.305 166.151 224.019 166.279 223.93 166.333C223.642 166.507 223.341 166.66 223.03 166.79L223.701 166.506C223.191 166.712 222.659 166.858 222.117 166.941L222.863 166.841C222.33 166.915 221.789 166.92 221.254 166.858L222 166.958C221.563 166.898 221.134 166.783 220.726 166.615L221.396 166.898C221.178 166.803 220.968 166.691 220.768 166.562C220.666 166.496 220.354 166.259 220.762 166.572C221.187 166.896 220.817 166.599 220.73 166.513C220.657 166.441 220.591 166.363 220.52 166.29C220.19 165.951 220.893 166.873 220.669 166.477C220.549 166.278 220.439 166.074 220.34 165.864L220.623 166.535C220.494 166.216 220.403 165.882 220.35 165.542L220.451 166.289C220.397 165.865 220.397 165.437 220.449 165.013L220.349 165.76C220.418 165.287 220.543 164.824 220.722 164.381L220.439 165.052C220.563 164.754 220.711 164.466 220.88 164.191C220.957 164.049 221.049 163.914 221.152 163.79C221.171 163.796 220.677 164.357 220.939 164.073C221.008 163.999 221.072 163.921 221.141 163.848C221.252 163.73 221.371 163.623 221.487 163.511C221.878 163.139 220.94 163.873 221.391 163.578C221.718 163.363 222.063 163.175 222.421 163.017L221.75 163.3C222.349 163.054 222.978 162.885 223.62 162.798L222.873 162.898C223.678 162.806 224.49 162.815 225.292 162.927L224.546 162.827C225.561 162.981 226.553 163.26 227.5 163.658L226.829 163.375C228.847 164.242 230.634 165.529 232.418 166.791C234.141 168.04 235.956 169.156 237.848 170.129C241.919 172.154 246.3 173.481 250.81 174.053C257.277 174.846 263.84 174.001 269.896 171.595C275.952 169.189 281.307 165.299 285.47 160.283C285.978 159.743 286.271 159.036 286.292 158.296C286.287 157.551 285.992 156.838 285.47 156.308C284.44 155.362 282.494 155.095 281.499 156.308C280.557 157.46 279.543 158.553 278.465 159.578C277.961 160.056 277.444 160.52 276.914 160.968C276.611 161.225 276.304 161.476 275.993 161.722C275.845 161.838 275.387 162.148 276.091 161.648C275.93 161.763 275.775 161.888 275.615 162.006C273.258 163.745 270.703 165.2 268.004 166.339L268.675 166.055C265.778 167.271 262.737 168.106 259.626 168.537L260.372 168.436C257.172 168.858 253.93 168.853 250.731 168.422L251.477 168.523C248.279 168.083 245.151 167.23 242.172 165.986L242.843 166.269C239.968 164.996 237.239 163.414 234.705 161.551C233.387 160.574 231.996 159.698 230.545 158.931C228.855 158.067 227.025 157.51 225.14 157.287C221.607 156.87 218.006 158.248 216.063 161.303C214.275 164.115 214.299 168.139 216.802 170.53C219.381 172.993 223.285 172.972 226.324 171.431C229.251 169.948 231.009 166.866 232.245 163.959C235.027 157.419 237.49 150.728 239.784 144.003C242.055 137.349 244.113 130.628 245.961 123.84C246.19 122.999 246.415 122.157 246.637 121.315C247.012 119.895 246.165 118.197 244.676 117.858C243.959 117.673 243.197 117.774 242.553 118.141C241.908 118.507 241.431 119.109 241.222 119.821L241.222 119.821Z" fill="#FF6584"/>
<path d="M269.237 119.041L268.226 154.933L267.221 190.638L266.652 210.827C266.659 211.571 266.957 212.282 267.482 212.807C268.007 213.333 268.717 213.631 269.46 213.637C270.2 213.623 270.906 213.323 271.43 212.799C271.953 212.275 272.253 211.568 272.268 210.827L273.278 174.935L274.284 139.23L274.852 119.041C274.846 118.297 274.548 117.586 274.023 117.061C273.498 116.535 272.787 116.237 272.044 116.231C271.304 116.245 270.598 116.546 270.075 117.069C269.551 117.593 269.251 118.3 269.237 119.041Z" fill="#FF6584"/>
<path opacity="0.2" d="M172.053 200.806H172.925V161.074H193.264V160.204H172.925V143.439H188.632C188.401 143.146 188.164 142.856 187.921 142.571H172.925V131.498C172.637 131.375 172.346 131.256 172.053 131.144V142.571H154.963V128.383C154.67 128.397 154.382 128.417 154.091 128.441V142.571H140.457V131.985C140.164 132.115 139.876 132.252 139.589 132.395V142.571H128.128V143.439H139.589V160.204H128.128V161.074H139.589V200.806H140.457V161.074C142.247 161.074 144.021 161.427 145.675 162.112C147.329 162.798 148.832 163.803 150.099 165.07C151.365 166.337 152.369 167.842 153.054 169.498C153.739 171.153 154.091 172.928 154.091 174.72V200.806H154.963V161.074H172.053V200.806ZM140.457 160.204V143.439H154.091V160.204H140.457ZM154.963 160.204V143.439H155.305C157.505 143.439 159.683 143.873 161.715 144.715C163.747 145.558 165.593 146.793 167.148 148.35C168.704 149.906 169.937 151.755 170.779 153.788C171.62 155.822 172.053 158.002 172.053 160.204H154.963Z" fill="black"/>
<path d="M166.729 188.893C165.631 193.794 163.002 198.216 159.223 201.52C158.946 201.76 158.669 201.992 158.381 202.221C157.681 202.284 156.985 202.349 156.295 202.416C155.723 202.468 155.157 202.524 154.596 202.577L154.495 202.588L154.424 201.973L154.139 199.485C153.035 197.682 152.351 195.653 152.137 193.549C151.924 191.445 152.185 189.32 152.904 187.331C153.892 184.663 155.681 182.306 157.441 179.968C159.871 176.738 162.233 173.546 162.319 169.608C163.514 171.139 164.508 172.818 165.276 174.603C164.552 174.944 163.901 175.424 163.36 176.015C163.206 176.184 163.053 176.42 163.157 176.622C163.247 176.795 163.472 176.836 163.667 176.858C164.135 176.907 164.606 176.956 165.074 177.004C165.449 177.046 165.823 177.083 166.197 177.124C166.65 178.612 166.957 180.141 167.114 181.688C167.367 184.095 167.237 186.527 166.729 188.893Z" fill="#F2F2F2"/>
<path d="M179.158 179.073C176.949 180.68 175.657 182.992 174.654 185.54C173.626 185.869 172.701 186.46 171.97 187.256C171.816 187.424 171.663 187.66 171.768 187.863C171.858 188.035 172.082 188.076 172.277 188.099C172.745 188.148 173.217 188.196 173.685 188.245C172.681 191.257 171.76 194.375 169.986 196.919C168.806 198.599 167.267 199.995 165.482 201.007C164.996 201.284 164.493 201.533 163.977 201.752C162.076 201.898 160.21 202.055 158.381 202.221C157.681 202.284 156.985 202.349 156.295 202.416C155.723 202.468 155.157 202.524 154.596 202.577C154.592 202.371 154.592 202.164 154.596 201.958C154.714 196.469 156.732 191.19 160.305 187.023C160.473 186.829 160.646 186.638 160.821 186.446C162.632 184.511 164.76 182.902 167.114 181.688C170.824 179.757 174.982 178.855 179.158 179.073Z" fill="#92DCE5"/>
<path d="M156.943 200.493L156.513 201.767L156.295 202.416C155.723 202.468 155.157 202.524 154.596 202.577L154.495 202.588C153.873 202.652 153.256 202.715 152.638 202.779C152.477 202.592 152.316 202.401 152.159 202.206C148.251 197.47 146.376 191.378 146.942 185.263C147.508 179.147 150.47 173.504 155.18 169.567C154.686 172.156 155.262 174.636 156.209 177.098C156.108 177.139 156.011 177.181 155.917 177.226C155.193 177.567 154.542 178.047 154.001 178.638C153.847 178.807 153.694 179.043 153.798 179.245C153.888 179.417 154.113 179.459 154.308 179.481C154.776 179.53 155.247 179.579 155.715 179.627C156.09 179.668 156.464 179.706 156.838 179.747C157.014 179.766 157.19 179.785 157.366 179.803C157.392 179.86 157.415 179.912 157.441 179.968C158.508 182.284 159.657 184.611 160.305 187.023C160.467 187.629 160.595 188.243 160.687 188.863C160.975 190.959 160.788 193.092 160.14 195.106C159.492 197.119 158.399 198.96 156.943 200.493Z" fill="#92DCE5"/>
<path d="M194.626 146.149C191.403 139.858 186.41 134.564 180.538 130.674C174.646 126.789 167.886 124.423 160.86 123.787C159.939 123.703 159.016 123.654 158.09 123.64C156.997 123.623 140.545 128.373 135.034 132.251C129.526 136.082 124.995 141.155 121.807 147.061C118.624 152.999 117.059 159.672 117.268 166.407C117.541 173.183 119.428 179.796 122.772 185.694C126.07 191.573 130.754 196.557 136.415 200.212C142.157 203.879 147.925 213.601 154.704 213.945C161.535 214.29 169.325 205.119 175.554 202.334C181.784 199.526 187.17 195.133 191.175 189.593C195.067 184.164 197.584 177.87 198.512 171.253C199.476 164.478 199.026 157.49 196.715 151.014C196.121 149.35 195.424 147.725 194.626 146.149C193.959 144.836 192.007 144.352 190.784 145.141C190.154 145.529 189.698 146.146 189.511 146.862C189.323 147.578 189.418 148.339 189.777 148.986C190.168 149.757 190.532 150.541 190.868 151.338L190.585 150.667C191.858 153.73 192.724 156.947 193.159 160.236L193.059 159.489C193.523 163.056 193.515 166.67 193.034 170.235L193.135 169.488C192.649 173.054 191.699 176.54 190.307 179.858L190.59 179.186C189.874 180.879 189.039 182.519 188.092 184.094C187.612 184.89 187.103 185.667 186.564 186.425C186.328 186.758 186.084 187.085 185.839 187.411C185.518 187.836 186.275 186.855 185.944 187.273C185.888 187.344 185.832 187.415 185.775 187.486C185.605 187.699 185.433 187.909 185.258 188.118C184.091 189.512 182.817 190.813 181.448 192.009C181.107 192.307 180.761 192.598 180.408 192.882C180.233 193.024 180.059 193.172 179.876 193.304C179.883 193.299 180.468 192.854 180.122 193.112C180.013 193.193 179.905 193.276 179.796 193.356C179.07 193.895 178.324 194.406 177.56 194.89C175.799 196 173.952 196.966 172.036 197.78L172.706 197.496C169.402 198.889 165.928 199.84 162.375 200.326L163.122 200.225C159.571 200.706 155.972 200.712 152.419 200.244L153.165 200.345C149.937 199.911 146.778 199.056 143.771 197.803L144.441 198.086C142.699 197.35 141.02 196.474 139.419 195.467C138.627 194.967 137.855 194.436 137.104 193.875C136.997 193.795 136.891 193.714 136.784 193.633C136.441 193.374 137.03 193.824 137.035 193.827C136.836 193.684 136.644 193.531 136.46 193.368C136.097 193.073 135.74 192.77 135.389 192.461C133.983 191.222 132.67 189.881 131.461 188.448C131.158 188.09 130.862 187.727 130.572 187.358C130.447 187.198 130.218 186.874 130.723 187.556C130.657 187.466 130.588 187.378 130.521 187.289C130.359 187.075 130.2 186.859 130.043 186.642C129.493 185.88 128.971 185.1 128.475 184.301C127.356 182.493 126.379 180.601 125.553 178.641L125.836 179.312C124.485 176.095 123.561 172.714 123.088 169.257L123.189 170.004C122.762 166.816 122.756 163.587 123.17 160.398L123.07 161.145C123.495 158.057 124.326 155.039 125.539 152.168L125.256 152.839C126.019 151.042 126.92 149.307 127.949 147.648C128.465 146.818 129.011 146.008 129.588 145.218C129.719 145.039 129.852 144.86 129.986 144.683C130.107 144.523 130.441 144.123 129.872 144.829C129.928 144.759 129.981 144.688 130.036 144.619C130.353 144.217 130.677 143.822 131.009 143.433C132.266 141.96 133.628 140.58 135.084 139.303C135.452 138.981 135.825 138.665 136.205 138.356C136.377 138.215 136.551 138.076 136.726 137.939C136.795 137.884 136.866 137.83 136.936 137.775C136.188 138.37 136.728 137.937 136.898 137.809C137.68 137.223 138.483 136.666 139.307 136.138C141.139 134.965 143.065 133.949 145.067 133.1L144.396 133.383C147.301 132.162 160.172 129.281 162.513 129.595L161.767 129.495C165.207 129.976 168.57 130.905 171.77 132.261L171.099 131.978C172.72 132.667 174.296 133.459 175.816 134.349C176.576 134.795 177.32 135.265 178.05 135.759C178.395 135.993 178.737 136.232 179.075 136.476C179.244 136.598 179.412 136.722 179.579 136.847C179.672 136.916 179.764 136.986 179.856 137.056C180.246 137.348 179.321 136.633 179.728 136.956C181.093 138.029 182.39 139.187 183.61 140.423C184.209 141.034 184.788 141.664 185.346 142.313C185.632 142.647 185.912 142.985 186.187 143.328C186.323 143.498 186.787 144.115 186.218 143.36C186.357 143.544 186.498 143.728 186.635 143.914C187.818 145.516 188.869 147.213 189.777 148.986C190.448 150.297 192.392 150.785 193.618 149.994C194.248 149.606 194.705 148.99 194.892 148.274C195.08 147.558 194.984 146.797 194.626 146.149Z" fill="#FF6584"/>
<path d="M161.91 192.009C161.62 192.022 161.333 191.946 161.088 191.791C160.843 191.635 160.652 191.408 160.54 191.141C160.428 190.873 160.401 190.577 160.462 190.293C160.524 190.009 160.672 189.751 160.885 189.554C160.92 189.412 160.946 189.31 160.981 189.168C160.969 189.138 160.956 189.107 160.943 189.076C159.64 185.967 151.328 194.634 150.968 197.556C150.81 198.847 150.877 200.156 151.165 201.425C148.473 195.546 147.075 189.157 147.066 182.69C147.065 181.067 147.155 179.446 147.335 177.833C147.484 176.511 147.691 175.198 147.956 173.895C149.399 166.823 152.497 160.195 156.997 154.555C159.57 154.698 161.826 154.306 162.043 149.315C162.082 148.427 162.74 147.658 162.885 146.783C162.639 146.816 162.39 146.836 162.144 146.852C162.067 146.856 161.987 146.86 161.91 146.864L161.882 146.865C161.612 146.877 161.344 146.811 161.111 146.674C160.877 146.538 160.689 146.337 160.567 146.095C160.445 145.854 160.396 145.582 160.425 145.313C160.454 145.044 160.56 144.789 160.73 144.579C160.836 144.449 160.942 144.318 161.049 144.187C161.21 143.986 161.375 143.788 161.536 143.587C161.554 143.568 161.572 143.548 161.588 143.526C161.774 143.297 161.959 143.071 162.144 142.841C161.806 142.316 161.351 141.876 160.815 141.555C158.958 140.467 156.397 141.221 155.056 142.902C153.711 144.582 153.457 146.941 153.924 149.041C154.384 150.828 155.144 152.523 156.171 154.055C156.071 154.184 155.966 154.309 155.865 154.438C154.025 156.807 152.421 159.35 151.076 162.032C151.456 159.057 146.804 148.316 145.005 146.04C142.843 143.307 138.412 144.5 138.031 147.964C138.027 147.998 138.024 148.032 138.02 148.065C138.287 148.216 138.549 148.376 138.805 148.546C139.127 148.761 139.376 149.068 139.52 149.427C139.664 149.786 139.696 150.181 139.613 150.558C139.529 150.936 139.333 151.28 139.051 151.545C138.769 151.809 138.413 151.983 138.031 152.042L137.992 152.048C134.415 157.16 145.883 170.465 148.753 167.478C147.402 171.31 146.555 175.301 146.232 179.352C146.049 181.742 146.06 184.143 146.264 186.531L146.252 186.447C145.614 181.245 134.673 173.512 131.477 174.156C129.637 174.527 127.824 174.442 128.103 176.301C128.108 176.33 128.112 176.36 128.117 176.39C128.613 176.592 129.096 176.825 129.563 177.087C129.83 177.238 130.092 177.398 130.348 177.567C130.669 177.783 130.918 178.09 131.062 178.449C131.206 178.808 131.239 179.202 131.155 179.58C131.072 179.958 130.876 180.302 130.594 180.567C130.311 180.831 129.956 181.004 129.574 181.063L129.535 181.069C129.506 181.074 129.482 181.078 129.454 181.082C127.826 186.689 139.901 195.739 147.243 192.86H147.247C147.974 196.024 149.028 199.104 150.392 202.05H161.628C161.669 201.925 161.705 201.796 161.741 201.671C160.701 201.736 159.657 201.674 158.632 201.486C159.466 200.462 160.299 199.43 161.133 198.406C161.152 198.387 161.169 198.367 161.185 198.346C161.608 197.822 162.035 197.302 162.458 196.778L162.458 196.777C162.481 195.171 162.297 193.568 161.91 192.009L161.91 192.009ZM149.043 166.675L149.049 166.667L149.043 166.683V166.675ZM146.554 189.131L146.457 188.913C146.462 188.756 146.462 188.599 146.457 188.438C146.457 188.393 146.449 188.349 146.449 188.305C146.486 188.583 146.518 188.861 146.558 189.139L146.554 189.131Z" fill="#F2F2F2"/>
<path d="M35.6575 168.608C37.9318 168.608 39.7755 166.763 39.7755 164.486C39.7755 162.21 37.9318 160.365 35.6575 160.365C33.3832 160.365 31.5396 162.21 31.5396 164.486C31.5396 166.763 33.3832 168.608 35.6575 168.608Z" fill="#2B303A"/>
<path d="M85.0732 213.57C87.3475 213.57 89.1912 211.725 89.1912 209.448C89.1912 207.172 87.3475 205.327 85.0732 205.327C82.7989 205.327 80.9552 207.172 80.9552 209.448C80.9552 211.725 82.7989 213.57 85.0732 213.57Z" fill="#FF6584"/>
<path d="M272.628 213.57C274.903 213.57 276.746 211.725 276.746 209.448C276.746 207.172 274.903 205.327 272.628 205.327C270.354 205.327 268.51 207.172 268.51 209.448C268.51 211.725 270.354 213.57 272.628 213.57Z" fill="#FF6584"/>
<path d="M282.736 161.114C285.01 161.114 286.854 159.269 286.854 156.993C286.854 154.716 285.01 152.871 282.736 152.871C280.462 152.871 278.618 154.716 278.618 156.993C278.618 159.269 280.462 161.114 282.736 161.114Z" fill="#FF6584"/>
<path d="M270.756 122.896C273.031 122.896 274.874 121.051 274.874 118.775C274.874 116.499 273.031 114.653 270.756 114.653C268.482 114.653 266.638 116.499 266.638 118.775C266.638 121.051 268.482 122.896 270.756 122.896Z" fill="#FF6584"/>
<path d="M98.9246 156.993C98.9221 158.045 98.5153 159.057 97.7884 159.818C97.0615 160.579 96.0702 161.031 95.0194 161.081C93.9687 161.131 92.9391 160.774 92.1437 160.085C91.3482 159.396 90.8478 158.428 90.7461 157.38C90.6443 156.332 90.9489 155.285 91.5968 154.456C92.2448 153.626 93.1865 153.078 94.2272 152.924C95.2678 152.771 96.3276 153.023 97.1874 153.63C98.0471 154.236 98.6409 155.151 98.846 156.183C98.8988 156.45 98.9251 156.721 98.9246 156.993Z" fill="#FF6584"/>
<path d="M181.284 134.886C183.558 134.886 185.402 133.041 185.402 130.765C185.402 128.488 183.558 126.643 181.284 126.643C179.01 126.643 177.166 128.488 177.166 130.765C177.166 133.041 179.01 134.886 181.284 134.886Z" fill="#F2F2F2"/>
<path d="M140.479 130.765C140.476 131.817 140.069 132.829 139.343 133.59C138.616 134.351 137.624 134.803 136.574 134.853C135.523 134.903 134.493 134.546 133.698 133.857C132.902 133.168 132.402 132.2 132.3 131.152C132.198 130.104 132.503 129.057 133.151 128.228C133.799 127.399 134.741 126.85 135.781 126.697C136.822 126.543 137.882 126.795 138.741 127.402C139.601 128.009 140.195 128.923 140.4 129.955C140.453 130.222 140.479 130.493 140.479 130.765Z" fill="#F2F2F2"/>
<path d="M87.3194 118.775C87.3169 119.828 86.9101 120.839 86.1832 121.6C85.4563 122.361 84.4649 122.813 83.4142 122.863C82.3635 122.913 81.3339 122.556 80.5384 121.867C79.743 121.179 79.2426 120.21 79.1408 119.162C79.039 118.114 79.3436 117.067 79.9916 116.238C80.6396 115.409 81.5813 114.86 82.6219 114.707C83.6625 114.553 84.7224 114.806 85.5821 115.412C86.4419 116.019 87.0357 116.933 87.2408 117.966C87.2936 118.232 87.3199 118.503 87.3194 118.775Z" fill="#FF6584"/>
<path d="M224.336 170.107C226.61 170.107 228.454 168.261 228.454 165.985C228.454 163.709 226.61 161.863 224.336 161.863C222.061 161.863 220.218 163.709 220.218 165.985C220.218 168.261 222.061 170.107 224.336 170.107Z" fill="#2B303A"/>
<path d="M159.571 132.638C162.879 132.638 165.561 129.954 165.561 126.643C165.561 123.332 162.879 120.648 159.571 120.648C156.263 120.648 153.581 123.332 153.581 126.643C153.581 129.954 156.263 132.638 159.571 132.638Z" fill="#F2F2F2"/>
<path d="M321.554 213.885L0.445742 214C0.387206 214 0.329242 213.988 0.275162 213.966C0.221081 213.944 0.171946 213.911 0.130555 213.869C0.0891634 213.828 0.0563261 213.779 0.0339254 213.725C0.0115246 213.67 0 213.612 0 213.554C0 213.495 0.0115246 213.437 0.0339254 213.383C0.0563261 213.329 0.0891634 213.28 0.130555 213.238C0.171946 213.197 0.221081 213.164 0.275162 213.142C0.329242 213.119 0.387206 213.108 0.445742 213.108L321.554 212.993C321.672 212.993 321.785 213.04 321.869 213.124C321.952 213.207 321.999 213.321 321.999 213.439C321.999 213.557 321.952 213.67 321.869 213.754C321.785 213.837 321.672 213.884 321.554 213.885Z" fill="#CACACA"/>
</svg>
