<svg width="298" height="251" viewBox="0 0 298 251" fill="none" xmlns="http://www.w3.org/2000/svg">
<g clip-path="url(#clip0_5_76)">
<path d="M242.697 121.142C242.697 124.669 242.549 128.16 242.252 131.615C242.018 134.313 241.699 136.986 241.294 139.635C240.865 142.439 240.338 145.21 239.714 147.948V147.951C239.307 149.752 238.859 151.539 238.371 153.311C236.956 158.462 235.196 163.512 233.103 168.428C232.648 169.498 232.178 170.56 231.694 171.614C229.86 175.609 227.807 179.499 225.544 183.268C219.198 193.851 211.275 203.409 202.049 211.613C201.05 212.5 200.038 213.371 199.012 214.229C177.228 232.395 149.733 242.327 121.349 242.284C54.3288 242.284 3.8147e-06 188.047 3.8147e-06 121.142C3.8147e-06 54.2361 54.3288 -6.35799e-05 121.349 -6.35799e-05C148.756 -0.0432049 175.364 9.21804 196.803 26.2631C197.808 27.0581 198.8 27.871 199.78 28.7017C204.56 32.7491 209.022 37.1578 213.125 41.8885H213.128C232.239 63.8803 242.741 92.028 242.697 121.142Z" fill="#F2F2F2"/>
<path d="M35.822 142.068C24.2621 135.199 15.5371 122.363 16.6699 108.981C27.2384 119.079 41.0442 125.12 55.6446 126.034C61.2766 126.366 67.5755 126.151 71.7213 129.971C74.301 132.348 75.5018 135.926 75.6988 139.425C75.8957 142.924 75.1936 146.404 74.4951 149.839L74.7355 150.68C61.2831 150.731 47.3819 148.936 35.822 142.068Z" fill="#E6E6E6"/>
<path d="M16.9518 108.967C21.5835 119.075 29.288 127.47 38.971 132.958C41.0526 134.121 43.2656 135.121 45.6174 135.584C47.9132 136.018 50.2835 135.831 52.4822 135.041C54.5471 134.346 56.5786 133.396 58.7768 133.214C61.0938 133.022 63.2388 133.915 64.9241 135.478C66.9861 137.39 68.2368 139.928 69.3735 142.452C70.6356 145.255 71.9021 148.186 74.3219 150.202C74.6151 150.446 74.2183 150.886 73.9256 150.642C69.7156 147.135 69.0284 141.263 65.6631 137.133C64.0928 135.205 61.9312 133.739 59.3632 133.778C57.1177 133.811 55.022 134.789 52.9374 135.511C50.7485 136.269 48.5557 136.625 46.2448 136.292C43.8809 135.95 41.6241 135.036 39.5218 133.931C34.7734 131.389 30.4547 128.119 26.7239 124.238C22.4415 119.833 18.9454 114.729 16.387 109.147C16.2288 108.802 16.7946 108.624 16.9518 108.967H16.9518Z" fill="white"/>
<path d="M35.7489 131.374C34.606 132.871 32.9673 133.914 31.1255 134.316C29.2837 134.718 27.3587 134.453 25.6943 133.569C25.3582 133.389 25.6226 132.859 25.9592 133.039C27.5076 133.865 29.3007 134.112 31.015 133.734C32.7293 133.356 34.2519 132.379 35.3079 130.979C35.5377 130.675 35.9774 131.072 35.7489 131.374L35.7489 131.374Z" fill="white"/>
<path d="M51.4817 135.531C51.0007 131.714 49.0961 128.218 46.1478 125.74C45.8555 125.495 46.2521 125.055 46.544 125.3C49.6074 127.884 51.582 131.526 52.0738 135.5C52.1204 135.878 51.5281 135.908 51.4817 135.531V135.531Z" fill="white"/>
<path d="M23.1767 119.556C23.7398 119.068 24.1729 118.449 24.4371 117.754C24.7013 117.058 24.7883 116.308 24.6903 115.571C24.6389 115.193 25.2313 115.163 25.2823 115.539C25.3868 116.354 25.2897 117.183 24.9995 117.952C24.7094 118.721 24.2349 119.407 23.6177 119.951C23.5638 120.007 23.4906 120.041 23.4128 120.045C23.3351 120.049 23.2586 120.024 23.1991 119.973C23.1409 119.921 23.106 119.847 23.1018 119.769C23.0976 119.691 23.1245 119.614 23.1767 119.556V119.556Z" fill="white"/>
<path d="M54.0884 83.0563C54.1272 83.2914 54.166 83.5265 54.2093 83.7639C54.7476 86.922 55.542 90.0313 56.5847 93.0611C56.6616 93.2966 56.7431 93.5341 56.8266 93.7669C59.4167 101.039 63.3367 107.769 68.3875 113.613C70.3995 115.936 72.5856 118.104 74.927 120.096C78.1607 122.848 81.8861 125.574 83.9594 129.127C84.1798 129.495 84.3773 129.877 84.5505 130.269L75.7449 150.322C75.702 150.358 75.6636 150.396 75.6205 150.431L75.3056 151.248C75.1777 151.154 75.047 151.053 74.9191 150.959C74.8446 150.904 74.7721 150.845 74.6977 150.791C74.6487 150.753 74.5997 150.715 74.5534 150.684C74.537 150.672 74.5207 150.659 74.5089 150.648C74.4626 150.617 74.4228 150.583 74.381 150.554C73.649 149.994 72.9198 149.427 72.1932 148.855C72.1886 148.853 72.1886 148.853 72.1859 148.847C66.6607 144.47 61.4529 139.595 57.1518 134.086C57.0225 133.92 56.8885 133.752 56.7632 133.577C54.8383 131.083 53.1208 128.436 51.6278 125.663C50.8153 124.142 50.0803 122.58 49.4259 120.985C47.7429 116.859 46.7203 112.495 46.3958 108.052C45.7502 99.1955 47.9492 90.2311 53.648 83.5616C53.7939 83.3911 53.9379 83.2248 54.0884 83.0563Z" fill="#E6E6E6"/>
<path d="M54.3235 83.213C51.9253 94.0679 53.0142 105.401 57.4355 115.603C58.396 117.783 59.5605 119.911 61.1587 121.694C62.7299 123.421 64.7356 124.696 66.9674 125.387C69.0353 126.073 71.2302 126.536 73.095 127.712C75.0607 128.951 76.2352 130.953 76.6382 133.214C77.1313 135.98 76.5992 138.758 75.9844 141.457C75.3017 144.453 74.5451 147.555 75.2616 150.619C75.3484 150.99 74.7663 151.103 74.6796 150.732C73.4331 145.402 76.4263 140.3 76.2302 134.979C76.1386 132.497 75.2971 130.027 73.2235 128.514C71.4101 127.191 69.1472 126.712 67.0473 126.036C64.8425 125.325 62.8769 124.292 61.233 122.637C59.5513 120.943 58.3011 118.856 57.2889 116.711C55.0301 111.828 53.5544 106.62 52.9159 101.28C52.1533 95.1887 52.44 89.0122 53.7637 83.0176C53.8458 82.6466 54.4051 82.8444 54.3235 83.213Z" fill="white"/>
<path d="M55.8182 112.402C54.0029 112.91 52.0658 112.757 50.3528 111.971C48.6397 111.185 47.2624 109.817 46.4666 108.111C46.3068 107.765 46.8376 107.501 46.9976 107.847C47.7356 109.437 49.0188 110.712 50.6154 111.441C52.2121 112.169 54.0171 112.304 55.7047 111.821C56.0715 111.716 56.1829 112.298 55.8182 112.402H55.8182Z" fill="white"/>
<path d="M65.873 125.177C67.7911 121.84 68.3789 117.904 67.519 114.153C67.4336 113.782 68.0156 113.669 68.101 114.04C68.9884 117.945 68.3684 122.039 66.3647 125.508C66.1735 125.838 65.6828 125.506 65.873 125.177Z" fill="white"/>
<path d="M52.9079 95.4088C53.6513 95.3583 54.3705 95.1243 55.0009 94.7277C55.6313 94.3311 56.1532 93.7845 56.5197 93.1368C56.7066 92.8041 57.1971 93.1369 57.0114 93.4674C56.6032 94.1811 56.0261 94.7842 55.3305 95.2239C54.635 95.6636 53.8422 95.9265 53.0214 95.9898C52.9445 96.0022 52.8658 95.985 52.8012 95.9416C52.7366 95.8981 52.691 95.8318 52.6736 95.756C52.659 95.679 52.6754 95.5993 52.7192 95.5343C52.7631 95.4693 52.8309 95.4243 52.9079 95.4089V95.4088Z" fill="white"/>
<path d="M84.0593 28.0771L98.9118 201.648L69.2067 203.878V30.2855C72.7464 27.9473 77.8274 27.5814 84.0593 28.0771Z" fill="#CCCCCC"/>
<path d="M157.374 28.0771L142.522 201.648L172.227 203.878V30.2855C168.687 27.9473 163.606 27.5814 157.374 28.0771Z" fill="#CCCCCC"/>
<path d="M167.779 211.052H73.3385C71.8241 211.05 70.3723 210.449 69.3015 209.38C68.2307 208.311 67.6283 206.861 67.6266 205.35V32.8328C67.6284 31.3211 68.2307 29.8717 69.3015 28.8027C70.3723 27.7338 71.8241 27.1325 73.3385 27.1307H167.779C169.293 27.1325 170.745 27.7338 171.816 28.8027C172.887 29.8717 173.489 31.3211 173.491 32.8328V205.35C173.489 206.861 172.887 208.311 171.816 209.38C170.745 210.449 169.293 211.05 167.779 211.052ZM73.3385 29.0236C72.3268 29.0247 71.3569 29.4264 70.6416 30.1405C69.9262 30.8546 69.5238 31.8229 69.5227 32.8328V205.35C69.5238 206.36 69.9262 207.328 70.6415 208.042C71.3569 208.756 72.3268 209.158 73.3385 209.159H167.779C168.791 209.158 169.761 208.756 170.476 208.042C171.191 207.328 171.594 206.36 171.595 205.35V32.8328C171.594 31.8229 171.191 30.8547 170.476 30.1405C169.76 29.4264 168.791 29.0247 167.779 29.0236L73.3385 29.0236Z" fill="#CCCCCC"/>
<path d="M172.543 55.8388H68.5747V57.7316H172.543V55.8388Z" fill="#CCCCCC"/>
<path d="M172.543 87.3862H68.5747V89.279H172.543V87.3862Z" fill="#CCCCCC"/>
<path d="M102.313 28.0771H100.417V114.201H102.313V28.0771Z" fill="#CCCCCC"/>
<path d="M140.7 28.0771H138.804V114.201H140.7V28.0771Z" fill="#CCCCCC"/>
<path d="M184.393 216.257H59.8843C57.6214 216.257 55.4512 215.36 53.8511 213.762C52.2509 212.165 51.352 209.998 51.352 207.739C51.352 205.48 52.2509 203.314 53.8511 201.716C55.4512 200.119 57.6214 199.222 59.8843 199.222H184.393C186.656 199.222 188.826 200.119 190.426 201.716C192.027 203.314 192.926 205.48 192.926 207.739C192.926 209.998 192.027 212.165 190.426 213.762C188.826 215.36 186.656 216.257 184.393 216.257Z" fill="#CCCCCC"/>
<path d="M172.543 109.785H69.2067V116.094H172.543V109.785Z" fill="#CCCCCC"/>
<path d="M102.608 129.865L102.476 129.802C95.432 126.405 86.2072 126.408 72.5648 129.813L72.4192 129.849L72.3755 129.706C70.9323 124.982 69.2975 119.631 72.3687 116.999C72.4117 109.274 79.1991 103.002 87.5359 103.002C95.871 103.002 102.657 109.271 102.703 116.994C107.272 120.481 105.094 125.634 102.681 129.739L102.608 129.865Z" fill="#2F2E41"/>
<path d="M145.905 113.324C145.779 113.95 145.516 114.541 145.137 115.055C144.757 115.569 144.269 115.993 143.707 116.298C143.145 116.604 142.523 116.782 141.885 116.821C141.247 116.861 140.607 116.76 140.012 116.526L115.118 141.5L112.897 133.745L137.622 110.553C138.082 109.581 138.883 108.812 139.874 108.39C140.864 107.969 141.975 107.924 142.996 108.266C144.017 108.608 144.877 109.311 145.413 110.243C145.949 111.176 146.124 112.272 145.905 113.324L145.905 113.324Z" fill="#FFB6B6"/>
<path d="M84.3778 137.367C84.3778 137.367 82.1192 142.477 87.6923 145.628C93.2654 148.779 112.743 144.426 115.904 143.818C119.064 143.21 130.869 125.575 130.869 125.575L129.2 116.926L113.544 130.493L84.3778 137.367Z" fill="#92DCE5"/>
<path d="M80.2671 165.624L80.5832 171.618C80.5832 171.618 79.6504 176.927 80.4175 178.073C81.1789 179.213 101.954 179.357 101.954 179.357C101.954 179.357 103.327 171.97 104.509 165.504L80.2671 165.624Z" fill="#FFB6B6"/>
<path d="M139.998 244.877L144.341 244.001L143.098 226.488L136.688 227.781L139.998 244.877Z" fill="#FFB6B6"/>
<path d="M146.219 222.086L150.257 220.274L145.019 203.517L139.06 206.193L146.219 222.086Z" fill="#FFB6B6"/>
<path d="M149.736 212.645L142.134 216.942L123.384 186.864C110.222 195.717 97.3506 199.956 84.3753 202.219C79.9884 202.998 75.5158 202.603 74.6736 198.146C74.6342 197.937 74.6028 197.728 74.5794 197.517C74.0614 192.648 80.128 186.408 80.8992 180.451L97.5026 179.456L99.5501 182.076L118.751 170.292C122.613 167.922 127.692 169.203 130.095 173.155C130.222 173.363 130.34 173.577 130.449 173.796L149.736 212.645Z" fill="#2F2E41"/>
<path d="M145.083 232.878L136.384 233.686L120.611 201.482C104.969 204.167 90.2134 205.027 77.4501 201.779C73.1287 200.694 70.4872 196.24 71.5501 191.83C71.5998 191.623 71.6572 191.419 71.7225 191.218C73.25 186.565 77.2485 183.273 80.3988 178.156L103.41 178.505L100.84 187.358L123.193 184.47C127.689 183.889 131.794 187.138 132.363 191.725C132.393 191.968 132.413 192.211 132.422 192.455L145.083 232.878Z" fill="#2F2E41"/>
<path d="M89.2521 125.286C94.4125 125.286 98.5959 121.11 98.5959 115.959C98.5959 110.807 94.4125 106.631 89.2521 106.631C84.0917 106.631 79.9083 110.807 79.9083 115.959C79.9083 121.11 84.0917 125.286 89.2521 125.286Z" fill="#FFB6B6"/>
<path d="M83.7743 128.654L92.3417 129.66C92.703 129.702 93.042 129.856 93.3115 130.1C93.5811 130.344 93.7677 130.666 93.8453 131.021L95.2078 137.245L103.701 147.23C103.701 147.23 106.751 152.938 105.607 159.408C104.464 165.878 103.961 170.686 103.961 170.686C103.961 170.686 81.1778 179.214 80.4153 178.072C79.6528 176.93 79.4054 171.744 79.4054 171.744L76.3555 137.872C76.3555 137.872 79.7867 132.163 81.6928 132.163C82.9231 132.122 82.7652 129.357 83.7743 128.654Z" fill="#92DCE5"/>
<path d="M104.193 172.768C105.394 172.768 106.368 171.602 106.368 170.162C106.368 168.723 105.394 167.556 104.193 167.556C102.991 167.556 102.017 168.723 102.017 170.162C102.017 171.602 102.991 172.768 104.193 172.768Z" fill="#92DCE5"/>
<path d="M137.843 240.368L144.464 237.055L145.712 239.962L154.085 241.651C154.499 241.735 154.875 241.948 155.159 242.26C155.442 242.572 155.619 242.966 155.662 243.385C155.705 243.804 155.613 244.226 155.399 244.589C155.185 244.952 154.861 245.237 154.473 245.403L146.383 248.865L143.754 246.587L144.444 249.695L141.393 251L137.843 240.368Z" fill="#2F2E41"/>
<path d="M144.324 220.692L150.886 217.264L152.185 220.148L160.587 221.69C161.002 221.766 161.382 221.973 161.671 222.28C161.96 222.587 162.143 222.978 162.194 223.396C162.244 223.814 162.16 224.237 161.952 224.604C161.745 224.971 161.426 225.262 161.041 225.435L153.013 229.038L150.344 226.806L151.089 229.902L148.062 231.26L144.324 220.692Z" fill="#2F2E41"/>
<path d="M83.9136 113.033C81.4451 113.037 79.0358 112.278 77.0165 110.86L76.949 110.813V110.731C76.9517 108.347 77.9015 106.062 79.5899 104.377C81.2783 102.691 83.5676 101.743 85.9554 101.74H89.7475C92.1353 101.743 94.4246 102.691 96.113 104.377C97.8014 106.062 98.7512 108.347 98.7539 110.731C98.7514 111.277 98.5356 111.8 98.1525 112.189C97.7694 112.578 97.2493 112.802 96.7029 112.814L84.1267 113.031C84.0558 113.032 83.9845 113.033 83.9136 113.033Z" fill="#2F2E41"/>
<path d="M99.3859 109.004C100.595 108.307 100.797 106.397 99.8372 104.737C98.8773 103.077 97.1189 102.297 95.9097 102.994C94.7006 103.691 94.4985 105.601 95.4584 107.261C96.4183 108.921 98.1767 109.701 99.3859 109.004Z" fill="#2F2E41"/>
<path d="M80.4747 107.153C81.8323 105.798 82.1324 103.9 81.1451 102.914C80.1578 101.929 78.257 102.228 76.8995 103.584C75.542 104.939 75.2418 106.836 76.2291 107.822C77.2164 108.808 79.1172 108.508 80.4747 107.153Z" fill="#2F2E41"/>
<path d="M163.169 192.439H153.843C153.633 192.438 153.425 192.484 153.234 192.572C153.043 192.66 152.873 192.789 152.737 192.949C152.393 192.886 152.039 192.905 151.704 193.005C151.369 193.105 151.062 193.283 150.81 193.524C150.557 193.765 150.365 194.063 150.249 194.393C150.134 194.722 150.099 195.075 150.146 195.421C150.194 195.766 150.323 196.096 150.523 196.383C150.723 196.669 150.988 196.904 151.296 197.069C151.605 197.233 151.948 197.322 152.298 197.328C152.647 197.335 152.994 197.258 153.308 197.105L154.081 199.614C154.173 199.911 154.358 200.172 154.609 200.357C154.859 200.541 155.163 200.641 155.474 200.641H161.538C161.85 200.641 162.153 200.541 162.404 200.357C162.654 200.172 162.839 199.911 162.931 199.614L164.562 194.321C164.629 194.104 164.644 193.874 164.606 193.649C164.568 193.425 164.477 193.212 164.342 193.029C164.206 192.846 164.029 192.697 163.826 192.595C163.622 192.492 163.397 192.439 163.169 192.439ZM152.344 196.698C151.925 196.698 151.523 196.532 151.227 196.236C150.93 195.94 150.764 195.539 150.764 195.12C150.764 194.702 150.93 194.301 151.227 194.005C151.523 193.709 151.925 193.543 152.344 193.543C152.373 193.543 152.4 193.55 152.428 193.551C152.365 193.805 152.373 194.072 152.45 194.321L153.118 196.487C152.882 196.623 152.616 196.696 152.344 196.698Z" fill="#3F3D56"/>
<path d="M121.523 185.591C120.886 185.649 120.244 185.568 119.642 185.352C119.04 185.137 118.493 184.792 118.039 184.342C117.585 183.893 117.235 183.349 117.014 182.75C116.794 182.15 116.707 181.51 116.761 180.874L85.653 164.232L92.457 159.883L121.806 176.874C122.871 177.035 123.839 177.581 124.528 178.407C125.217 179.233 125.578 180.283 125.543 181.358C125.508 182.432 125.08 183.456 124.339 184.237C123.598 185.017 122.596 185.499 121.523 185.591Z" fill="#FFB6B6"/>
<path d="M80.7988 133.649C80.7988 133.649 75.2476 132.955 73.8229 139.189C72.3981 145.423 82.1643 162.801 83.6544 165.649C85.1445 168.497 105.454 174.726 105.454 174.726L113.274 170.648L95.7638 159.57L80.7988 133.649Z" fill="#92DCE5"/>
<path d="M119.927 107.892H121.823C122.745 107.892 123.629 108.258 124.281 108.908C124.933 109.559 125.299 110.442 125.299 111.362H116.451C116.451 110.442 116.817 109.559 117.469 108.908C118.121 108.258 119.005 107.892 119.927 107.892Z" fill="#CCCCCC"/>
<path d="M59.8027 43.1459C70.177 43.1459 78.5871 34.7502 78.5871 24.3936C78.5871 14.0369 70.177 5.64124 59.8027 5.64124C49.4284 5.64124 41.0183 14.0369 41.0183 24.3936C41.0183 34.7502 49.4284 43.1459 59.8027 43.1459Z" fill="#FF6584"/>
<path d="M117.316 23.4163C112.345 18.2102 106.571 13.4609 99.7362 10.9512C97.8323 10.2491 95.8582 9.75389 93.8481 9.47405C93.8319 9.47184 93.8166 9.47511 93.8006 9.4738C93.7679 9.46539 93.7347 9.45889 93.7012 9.45434C90.8898 9.0968 88.0362 9.26878 85.2883 9.96138C83.9445 10.298 82.6336 10.7539 81.3711 11.3236C80.1042 11.9407 78.8767 12.6352 77.6955 13.4032C75.1953 14.8972 72.4427 15.9224 69.5732 16.4281C68.1329 16.687 66.674 16.8299 65.2108 16.8555C63.9411 16.881 62.7438 16.925 61.5408 17.3829C60.2558 17.8653 59.1016 18.6408 58.1702 19.6476C57.2388 20.6544 56.556 21.8646 56.1763 23.1816C56.147 23.2989 56.1558 23.4224 56.2014 23.5344C56.2471 23.6463 56.3272 23.7409 56.4301 23.8045C56.7555 24.0371 57.0728 24.3011 57.4147 24.5084C57.7188 24.6474 58.0436 24.7358 58.3763 24.7702C58.9199 24.8847 59.4641 24.9959 60.0091 25.1037C62.0166 25.5008 64.0325 25.8523 66.0568 26.1582C70.1527 26.7772 74.2708 27.2132 78.411 27.4663C86.7051 27.9678 95.0276 27.7181 103.276 26.7202C107.912 26.1597 112.517 25.3646 117.072 24.3382C117.164 24.3113 117.248 24.261 117.315 24.1923C117.382 24.1236 117.43 24.0387 117.455 23.946C117.479 23.8532 117.479 23.7557 117.455 23.6629C117.431 23.5701 117.383 23.4852 117.316 23.4163Z" fill="#E6E6E6"/>
<path d="M60.6942 35.9543C58.7903 35.2522 56.8162 34.757 54.8061 34.4772C54.7899 34.475 54.7746 34.4782 54.7585 34.4769C54.7258 34.4685 54.6927 34.462 54.6592 34.4575C51.8478 34.0999 48.9942 34.2719 46.2463 34.9645C44.9025 35.3011 43.5916 35.757 42.3291 36.3268C41.0622 36.9438 39.8347 37.6383 38.6535 38.4063C36.1533 39.9003 33.4006 40.9255 30.5312 41.4312C29.0908 41.6901 27.632 41.833 26.1688 41.8586C24.8991 41.8841 23.7017 41.9281 22.4988 42.386C21.2138 42.8684 20.0596 43.6439 19.1282 44.6507C18.1968 45.6575 17.514 46.8677 17.1342 48.1847C17.105 48.302 17.1138 48.4255 17.1594 48.5375C17.2051 48.6494 17.2852 48.744 17.3881 48.8076C17.7135 49.0402 18.0308 49.3042 18.3727 49.5115C18.6768 49.6504 19.0016 49.7389 19.3343 49.7733C19.8779 49.8878 20.4221 49.999 20.9671 50.1068C22.9746 50.5039 24.9905 50.8554 27.0147 51.1613C31.1107 51.7803 35.2288 52.2163 39.369 52.4694C47.6631 52.9709 55.9856 52.7212 64.2345 51.7233C68.8704 51.1628 73.4749 50.3677 78.0301 49.3413C78.1223 49.3143 78.206 49.2641 78.273 49.1954C78.3401 49.1267 78.3882 49.0418 78.4128 48.9491C78.4373 48.8563 78.4374 48.7588 78.413 48.666C78.3887 48.5732 78.3408 48.4883 78.2739 48.4194C73.3026 43.2133 67.5291 38.464 60.6942 35.9543Z" fill="#E6E6E6"/>
<path d="M196.156 175.75L181.711 156.805L170.313 163.239L194.466 191.872L196.156 175.75Z" fill="#3F3D56"/>
<path d="M229.431 144.954C229.752 152.893 230.984 160.769 233.103 168.428C232.648 169.498 232.178 170.56 231.694 171.614C229.86 175.609 227.807 179.499 225.544 183.268C219.198 193.851 211.275 203.409 202.049 211.613C201.05 212.5 200.038 213.372 199.012 214.229C193.163 206.178 190.006 197.294 188.757 188.152C188.599 186.991 188.47 185.817 188.372 184.65V184.643C188.132 181.807 188.055 178.959 188.141 176.113C188.144 175.886 188.151 175.656 188.16 175.425C188.271 172.384 188.546 169.337 188.96 166.318V166.314C189.007 165.967 189.054 165.62 189.108 165.273C189.26 164.232 189.43 163.191 189.617 162.157C190.702 156.189 192.216 150.307 194.149 144.556V144.553C194.202 144.386 194.256 144.222 194.316 144.058C194.525 143.433 194.736 142.815 194.954 142.197C194.968 142.148 194.985 142.101 195.005 142.055C195.286 141.247 195.574 140.446 195.868 139.651C195.947 139.43 196.029 139.209 196.114 138.988C196.446 138.102 196.784 137.222 197.129 136.354C197.236 136.076 197.347 135.799 197.457 135.524C197.543 135.313 197.625 135.102 197.713 134.893V134.89C198.216 133.65 198.724 132.435 199.239 131.243C200.684 127.893 202.169 124.741 203.616 121.836L203.619 121.833C209.627 109.804 215.087 101.993 215.087 101.993L235.594 108.618C233.148 112.949 231.255 119.337 230.218 126.874C229.42 132.864 229.156 138.914 229.431 144.951L229.431 144.954Z" fill="#3F3D56"/>
<path d="M195.349 143.026C195.229 142.745 195.093 142.471 194.954 142.197C194.233 140.803 193.305 139.527 192.202 138.411C192.038 138.244 191.867 138.076 191.69 137.919C189.786 136.168 187.472 134.925 184.96 134.305C182.448 133.684 179.819 133.705 177.318 134.366L177.305 134.373L177.21 134.398L177.232 134.505C177.327 135.005 177.465 135.496 177.643 135.972C177.691 136.102 177.744 136.225 177.798 136.348C177.82 136.404 177.849 136.455 177.874 136.512C177.874 136.512 177.871 136.515 177.877 136.515C177.877 136.518 177.88 136.521 177.88 136.524C177.94 136.641 177.997 136.761 178.06 136.875C177.931 136.751 177.807 136.625 177.687 136.496C177.57 136.376 177.463 136.25 177.356 136.124C176.987 135.695 176.654 135.237 176.36 134.755L176.31 134.669L176.221 134.704C175.029 135.117 173.891 135.673 172.833 136.36L172.72 136.436C171.912 136.965 171.002 137.319 170.049 137.474C169.096 137.63 168.12 137.583 167.186 137.338C165.714 136.959 164.178 136.89 162.677 137.135C161.176 137.38 159.743 137.934 158.468 138.761C157.623 139.311 156.859 139.975 156.199 140.736C156.142 140.802 156.085 140.872 156.028 140.938C155.908 141.083 155.794 141.231 155.683 141.383C154.496 142.968 153.766 144.848 153.576 146.818L153.569 146.891L153.629 146.932C154.699 147.663 155.908 148.166 157.181 148.408C156.381 148.52 155.571 148.54 154.767 148.468H154.764C154.399 148.438 154.036 148.388 153.677 148.317L153.61 148.304H153.607L153.525 148.288L153.538 148.44C153.632 150.367 154.24 152.235 155.298 153.85L155.33 153.894C155.341 153.91 155.352 153.927 155.361 153.945C155.809 154.629 156.182 155.36 156.473 156.125C157.212 158.024 157.375 160.099 156.941 162.09C156.45 164.22 156.613 166.448 157.409 168.484C158.205 170.52 159.597 172.269 161.403 173.504C162.99 174.594 164.839 175.242 166.76 175.381C167.022 175.403 167.287 175.416 167.553 175.416C169.072 175.421 170.576 175.108 171.968 174.498L172.018 174.479L172.031 174.422C172.298 173.56 172.674 172.735 173.149 171.968C172.994 172.573 172.915 173.195 172.916 173.82V174.028L173.096 173.924C173.251 173.832 173.409 173.734 173.551 173.643C174.404 173.087 175.177 172.416 175.848 171.649C176.111 171.346 176.376 171.053 176.654 170.76L176.657 170.756C177.198 170.182 177.77 169.621 178.364 169.084C179.628 167.951 180.98 166.92 182.409 166.002C183.836 165.087 185.328 164.277 186.874 163.579H186.877C187.051 163.497 187.228 163.418 187.402 163.343C188.171 163.008 188.912 162.612 189.617 162.157C189.642 162.141 189.664 162.128 189.686 162.112C192.741 160.116 194.987 157.101 196.024 153.606C197.061 150.111 196.822 146.362 195.349 143.026L195.349 143.026Z" fill="#92DCE5"/>
<path opacity="0.15" d="M157.462 166.569C157.376 166.953 157.31 167.341 157.266 167.732C156.678 165.876 156.593 163.897 157.019 161.997C157.085 161.707 157.134 161.413 157.173 161.117C157.757 162.876 157.856 164.759 157.462 166.569Z" fill="black"/>
<path opacity="0.15" d="M157.701 152.885C156.765 153.015 155.816 153.019 154.878 152.898C154.633 152.436 154.421 151.957 154.244 151.465C155.288 152.168 156.464 152.651 157.701 152.885Z" fill="black"/>
<path opacity="0.15" d="M154.803 148.367C154.458 149.249 154.228 150.172 154.12 151.113C153.832 150.217 153.662 149.287 153.614 148.347L153.606 148.195L153.755 148.224C154.102 148.289 154.452 148.337 154.803 148.367Z" fill="black"/>
<path opacity="0.15" d="M158.549 138.667C159.823 137.839 161.255 137.284 162.756 137.039C164.256 136.794 165.791 136.863 167.263 137.243C168.197 137.489 169.173 137.537 170.127 137.381C171.081 137.226 171.992 136.872 172.799 136.342L172.913 136.267C173.97 135.578 175.107 135.02 176.299 134.607L176.39 134.575L176.44 134.657C176.911 135.435 177.483 136.149 178.139 136.779C177.74 136.038 177.461 135.238 177.312 134.41L177.29 134.301L177.398 134.272C179.744 133.652 182.204 133.595 184.577 134.105C186.949 134.614 189.168 135.677 191.051 137.206C192.934 138.734 194.428 140.686 195.412 142.901C196.396 145.116 196.841 147.532 196.711 149.951C196.214 147.979 195.329 146.124 194.108 144.496C192.887 142.867 191.355 141.496 189.6 140.463C187.844 139.43 185.901 138.755 183.883 138.477C181.864 138.199 179.811 138.324 177.841 138.844L177.733 138.873L177.754 138.982C177.904 139.81 178.183 140.61 178.582 141.351C177.925 140.721 177.354 140.008 176.883 139.23L176.833 139.147L176.742 139.179C175.55 139.592 174.413 140.15 173.356 140.839L173.242 140.914C172.434 141.444 171.524 141.798 170.57 141.953C169.616 142.109 168.64 142.061 167.706 141.815C165.259 141.181 162.668 141.414 160.375 142.474C158.081 143.534 156.227 145.356 155.129 147.628C154.639 147.393 154.165 147.129 153.709 146.836L153.647 146.797L153.654 146.724C153.811 145.1 154.333 143.533 155.18 142.138C156.028 140.743 157.179 139.557 158.549 138.667Z" fill="black"/>
<path d="M276.03 58.0597L275.73 57.861L275.512 58.1449C273.825 60.266 272.482 62.639 271.534 65.1768C271.664 62.2532 272.177 59.359 273.057 56.5675L273.152 56.2742L272.88 56.1196C269.344 54.1208 265.577 52.5613 261.661 51.4758L261.235 51.3622C258.234 50.5403 255.441 49.0962 253.037 47.1241C250.633 45.152 248.672 42.6962 247.283 39.9169C244.054 33.5382 238.954 28.2941 232.662 24.8845C226.37 21.4748 219.187 20.0618 212.07 20.8339H212.066C211.991 20.8402 211.912 20.8496 211.836 20.8591C211.706 20.8717 211.58 20.8875 211.453 20.9033C211.194 20.938 210.941 20.9727 210.689 21.0105C210.474 21.0421 210.256 21.0768 210.041 21.1146C209.927 21.1304 209.816 21.1493 209.706 21.1714C209.595 21.1903 209.481 21.2093 209.371 21.2314H209.368C207.246 21.632 205.166 22.2287 203.155 23.0138H203.152V23.0169L202.643 23.2157C202.118 23.4302 201.598 23.6573 201.082 23.8971C200.965 23.9507 200.851 24.0075 200.734 24.0611C200.703 24.0769 200.668 24.0927 200.636 24.1116C200.304 24.2693 199.976 24.4334 199.65 24.6069C199.603 24.629 199.555 24.6542 199.508 24.6795L199.205 24.8404C198.538 25.2 197.883 25.5817 197.239 25.9855C197.185 26.0171 197.135 26.0486 197.081 26.0833C197.024 26.1212 196.964 26.159 196.907 26.1969C196.873 26.2158 196.838 26.2411 196.803 26.2631C196.705 26.3231 196.61 26.3862 196.515 26.4524C196.326 26.5755 196.136 26.7016 195.95 26.831C195.757 26.9603 195.567 27.096 195.378 27.2316L195.188 27.3673L195.223 27.6007C195.255 27.7932 195.283 27.9856 195.318 28.1749C195.349 28.3642 195.381 28.5503 195.416 28.7365C195.469 29.0488 195.53 29.3579 195.59 29.6576C195.631 29.8564 195.669 30.052 195.713 30.2444C195.754 30.4432 195.798 30.6419 195.846 30.8407C195.937 31.2508 196.035 31.6483 196.139 32.0395C196.19 32.2351 196.244 32.4306 196.301 32.6231C196.332 32.7398 196.364 32.8565 196.399 32.9701C196.424 33.049 196.449 33.1278 196.474 33.2067C196.481 33.232 196.487 33.2603 196.497 33.2887C196.503 33.3155 196.512 33.3418 196.522 33.3676C196.557 33.4843 196.591 33.5979 196.626 33.7083C196.645 33.7683 196.664 33.8282 196.686 33.885C196.73 34.0206 196.778 34.1594 196.825 34.2919C196.876 34.4434 196.929 34.5948 196.983 34.7431C196.996 34.7809 197.008 34.8156 197.021 34.8535C197.031 34.8819 197.04 34.9103 197.053 34.9387C197.065 34.9702 197.078 35.0049 197.091 35.0365C197.144 35.1784 197.198 35.3235 197.255 35.4655C197.274 35.516 197.293 35.5696 197.315 35.6201C197.827 36.9053 198.457 38.1408 199.195 39.3111C198.377 38.6108 197.589 37.8684 196.831 37.0839C195.662 35.8709 194.585 34.5729 193.608 33.2004C193.529 33.0931 193.45 32.9827 193.377 32.8723C193.229 32.6609 193.084 32.4496 192.941 32.2351C192.79 32.0142 192.644 31.7839 192.502 31.5568C192.407 31.4054 192.312 31.2508 192.221 31.0993C192.129 30.9542 192.044 30.8123 191.962 30.6672L191.715 30.2444H191.712V30.2476L191.364 30.5883C191.225 30.7239 191.086 30.8596 190.951 30.9952C186.703 35.2614 183.627 40.5468 182.017 46.343L181.969 46.5165L181.922 46.6963C181.83 47.0181 181.739 47.3304 181.641 47.6491V47.6522C181.546 47.9677 181.445 48.2832 181.337 48.5923C181.239 48.8857 181.138 49.176 181.031 49.4662C180.996 49.564 180.958 49.6618 180.917 49.7596C180.851 49.9489 180.778 50.135 180.705 50.3243C180.671 50.4095 180.636 50.4978 180.601 50.583C180.516 50.7912 180.43 50.9994 180.345 51.2045C180.332 51.236 180.317 51.2707 180.301 51.3023C180.276 51.3654 180.247 51.4284 180.222 51.4884C180.156 51.6398 180.086 51.7944 180.02 51.9458C179.972 52.0436 179.928 52.1446 179.884 52.2424C179.865 52.2865 179.843 52.3307 179.824 52.3749C179.707 52.6272 179.587 52.8765 179.46 53.1226C179.318 53.4128 179.173 53.703 179.018 53.987C178.882 54.252 178.74 54.5106 178.591 54.7693C178.335 55.2268 178.067 55.681 177.789 56.1227C177.681 56.2931 177.574 56.4634 177.463 56.6338C177.438 56.6748 177.413 56.7158 177.387 56.7537C177.296 56.9019 177.201 57.0439 177.103 57.189C177.036 57.2868 176.97 57.3846 176.904 57.4792C176.793 57.6496 176.676 57.8137 176.556 57.9745C176.525 58.025 176.49 58.0723 176.455 58.1197C176.278 58.3657 176.101 58.6055 175.921 58.8452C175.915 58.8484 175.915 58.8516 175.911 58.8547C175.905 58.8547 175.905 58.8579 175.902 58.861C175.823 58.9651 175.744 59.0692 175.662 59.1702C175.554 59.3185 175.437 59.4636 175.321 59.6055C175.131 59.8453 174.932 60.0882 174.73 60.3248C174.723 60.3311 174.72 60.3374 174.714 60.3406C173.667 61.5687 172.532 62.72 171.32 63.7856C171.298 63.8045 171.282 63.8234 171.26 63.8392C171.089 63.9875 170.918 64.1357 170.742 64.2809C170.669 64.3408 170.596 64.4007 170.523 64.4607C170.403 64.5616 170.28 64.6626 170.16 64.7541C170.146 64.7686 170.13 64.7813 170.113 64.7919C170.005 64.8803 169.901 64.9623 169.793 65.0443C169.664 65.1484 169.534 65.2462 169.402 65.344C168.776 65.8172 168.133 66.2641 167.474 66.6848C167.376 66.751 167.272 66.8173 167.171 66.8804C167.111 66.9182 167.051 66.9561 166.994 66.9876C166.753 67.1359 166.513 67.281 166.273 67.4198C166.033 67.5618 165.786 67.6974 165.543 67.8299C165.022 68.1139 164.507 68.4104 164.004 68.7196C163.751 68.8773 163.499 69.035 163.249 69.1959C162.257 69.8395 161.301 70.5283 160.383 71.2623C159.464 71.9967 158.584 72.7769 157.744 73.5999C157.64 73.7009 157.535 73.805 157.431 73.9123C157.223 74.1173 157.02 74.3255 156.827 74.5337C156.518 74.8524 156.221 75.1805 155.927 75.5117C154.377 77.2671 153.005 79.1713 151.831 81.1965C151.242 82.2078 150.706 83.2492 150.226 84.3166C149.863 85.1147 149.531 85.9318 149.231 86.7583C149.031 87.3104 148.845 87.8677 148.671 88.4303C148.586 88.7111 148.504 88.995 148.425 89.279C148.156 90.2412 147.932 91.2128 147.748 92.1876C147.6 92.97 147.48 93.7534 147.388 94.5379C147.341 94.9323 147.303 95.3266 147.268 95.7178C147.187 96.6793 147.145 97.6417 147.143 98.6051C147.138 101.495 147.49 104.375 148.191 107.179C148.346 107.797 148.517 108.412 148.706 109.024C148.801 109.33 148.902 109.633 149.003 109.936C149.259 110.693 149.542 111.443 149.853 112.186C150.04 112.63 150.235 113.072 150.441 113.51C151.746 116.298 153.412 118.903 155.396 121.259C155.721 121.647 156.057 122.028 156.404 122.404C156.407 122.404 156.404 122.407 156.404 122.407C157.264 123.343 158.174 124.232 159.131 125.069H159.134C159.517 125.407 159.905 125.734 160.3 126.051C160.304 126.047 160.304 126.051 160.304 126.051C160.702 126.372 161.103 126.682 161.514 126.981C161.719 127.129 161.928 127.278 162.14 127.426C162.554 127.719 162.976 128.002 163.407 128.275H163.41C163.84 128.552 164.276 128.817 164.718 129.07C165.606 129.578 166.516 130.054 167.452 130.486L167.61 130.559L167.771 130.486C169.271 129.812 170.817 129.246 172.397 128.792C172.745 128.691 173.096 128.6 173.443 128.511C174.322 128.294 175.207 128.111 176.098 127.962C175.23 128.397 174.391 128.889 173.589 129.436C172.966 129.855 172.353 130.313 171.737 130.817C171.532 130.985 171.326 131.158 171.121 131.335L170.609 131.776L171.25 131.988C171.484 132.063 171.718 132.139 171.952 132.209C172.271 132.31 172.587 132.401 172.897 132.486C173.573 132.676 174.253 132.843 174.938 132.988C175.106 133.023 175.27 133.057 175.437 133.092C175.763 133.155 176.092 133.218 176.42 133.275C176.434 133.278 176.447 133.28 176.461 133.281C176.803 133.338 177.147 133.392 177.488 133.439C178.124 133.53 178.759 133.603 179.394 133.657C179.463 133.666 179.533 133.669 179.606 133.672C179.761 133.685 179.912 133.698 180.067 133.707C180.408 133.729 180.753 133.745 181.097 133.758C181.123 133.758 181.145 133.761 181.17 133.761C181.344 133.767 181.518 133.773 181.691 133.777C181.691 133.777 181.691 133.78 181.695 133.777C181.868 133.78 182.042 133.783 182.216 133.783H183.177C183.357 133.783 183.537 133.786 183.72 133.786C183.973 133.786 184.229 133.789 184.482 133.792C184.548 133.792 184.618 133.795 184.687 133.795C185.092 133.802 185.496 133.811 185.901 133.821C185.926 133.821 185.951 133.824 185.976 133.824C186.381 133.836 186.785 133.849 187.19 133.868C187.278 133.871 187.367 133.874 187.459 133.881C187.847 133.896 188.236 133.915 188.625 133.937C188.735 133.944 188.849 133.953 188.963 133.959C189.257 133.975 189.554 133.994 189.848 134.016C190.021 134.026 190.192 134.038 190.366 134.054C191.067 134.108 191.766 134.168 192.467 134.237C192.701 134.256 192.935 134.281 193.169 134.307C193.795 134.373 194.422 134.445 195.052 134.524C195.334 134.556 195.615 134.594 195.896 134.631C195.928 134.635 195.959 134.638 195.991 134.644C196.339 134.691 196.683 134.739 197.031 134.789C197.258 134.821 197.486 134.855 197.713 134.89C197.947 134.925 198.181 134.96 198.415 135.001C198.541 135.019 198.668 135.042 198.797 135.064C199.1 135.111 199.407 135.161 199.714 135.218C199.741 135.221 199.769 135.225 199.796 135.231C200.447 135.344 201.101 135.464 201.752 135.594C202.134 135.666 202.513 135.742 202.893 135.821C203.19 135.881 203.487 135.944 203.784 136.007C203.834 136.016 203.885 136.029 203.935 136.042C203.947 136.045 203.958 136.047 203.97 136.048C204.419 136.146 204.871 136.247 205.32 136.354C206.878 136.714 208.433 137.113 209.987 137.553C210.344 137.651 210.701 137.755 211.058 137.859C211.21 137.903 211.359 137.947 211.507 137.991C211.817 138.083 212.123 138.174 212.433 138.272C212.705 138.354 212.98 138.439 213.252 138.528C213.422 138.581 213.593 138.635 213.763 138.692C214.029 138.774 214.294 138.859 214.557 138.95C214.781 139.02 215.002 139.092 215.223 139.171C215.539 139.275 215.859 139.382 216.175 139.496C216.266 139.528 216.361 139.559 216.453 139.594C216.838 139.726 217.224 139.862 217.609 140.004C217.985 140.14 218.361 140.278 218.734 140.417C218.993 140.515 219.253 140.61 219.509 140.711C219.796 140.821 220.084 140.931 220.368 141.045C220.779 141.206 221.193 141.37 221.604 141.537C221.983 141.689 222.359 141.843 222.738 142.004C222.808 142.032 222.88 142.061 222.95 142.092C223.279 142.228 223.607 142.37 223.933 142.512C224.144 142.6 224.353 142.692 224.562 142.783C225.472 143.181 226.381 143.592 227.289 144.017H227.292C227.861 144.285 228.439 144.54 229.021 144.783C229.156 144.84 229.292 144.897 229.431 144.951C229.662 145.048 229.896 145.14 230.13 145.235C230.281 145.294 230.433 145.354 230.588 145.411C230.812 145.5 231.04 145.585 231.267 145.667C231.508 145.755 231.745 145.843 231.988 145.925C232.073 145.957 232.159 145.985 232.247 146.017C232.528 146.112 232.81 146.206 233.094 146.298C233.122 146.307 233.151 146.317 233.182 146.326C233.479 146.421 233.777 146.515 234.077 146.604C234.1 146.612 234.125 146.62 234.149 146.626C234.472 146.724 234.8 146.818 235.126 146.91C235.606 147.042 236.09 147.168 236.573 147.285C236.662 147.307 236.75 147.329 236.839 147.348C237.098 147.411 237.354 147.471 237.613 147.528C237.888 147.591 238.166 147.648 238.441 147.705C238.719 147.761 238.997 147.818 239.272 147.869C239.42 147.897 239.569 147.926 239.714 147.951L240.103 148.017C240.372 148.064 240.64 148.105 240.912 148.149C240.92 148.149 240.927 148.15 240.934 148.153C241.241 148.2 241.544 148.244 241.851 148.282C242.145 148.323 242.438 148.358 242.732 148.392C242.792 148.399 242.856 148.405 242.919 148.411C243.162 148.44 243.405 148.468 243.649 148.49C243.718 148.497 243.788 148.503 243.857 148.509C244.097 148.531 244.338 148.553 244.578 148.569C244.626 148.575 244.675 148.579 244.723 148.579C244.938 148.597 245.153 148.613 245.368 148.623C245.52 148.635 245.668 148.642 245.82 148.651C245.899 148.654 245.975 148.657 246.054 148.661C246.262 148.673 246.471 148.68 246.682 148.686C246.938 148.695 247.194 148.702 247.447 148.708C247.754 148.714 248.063 148.717 248.37 148.717H248.376C248.677 148.717 248.98 148.714 249.28 148.708H249.394L249.726 148.698C249.896 148.695 250.067 148.689 250.234 148.683C250.557 148.67 250.876 148.654 251.195 148.635C251.322 148.629 251.451 148.62 251.578 148.613C251.634 148.61 251.694 148.604 251.751 148.601C251.95 148.588 252.146 148.575 252.345 148.56C252.551 148.544 252.759 148.525 252.965 148.503C253.23 148.478 253.496 148.449 253.761 148.421C253.97 148.399 254.178 148.373 254.384 148.348C254.411 148.346 254.439 148.342 254.466 148.336C254.665 148.314 254.864 148.288 255.06 148.26C255.294 148.228 255.525 148.194 255.755 148.159C255.781 148.156 255.803 148.153 255.828 148.15C256.226 148.086 256.627 148.023 257.029 147.951C257.449 147.875 257.869 147.793 258.286 147.708C258.441 147.676 258.593 147.642 258.748 147.61C258.833 147.591 258.922 147.575 259.004 147.556C259.133 147.528 259.26 147.5 259.386 147.468C259.408 147.465 259.434 147.459 259.456 147.455C259.633 147.418 259.807 147.373 259.983 147.329C260.337 147.244 260.685 147.156 261.033 147.061C261.187 147.023 261.342 146.982 261.491 146.941C261.535 146.929 261.579 146.916 261.62 146.903C262.262 146.724 262.898 146.533 263.529 146.332C263.807 146.244 264.082 146.153 264.357 146.055C264.948 145.853 265.534 145.64 266.114 145.418C266.269 145.361 266.424 145.298 266.579 145.238C266.806 145.146 267.034 145.055 267.258 144.963C267.46 144.878 267.663 144.793 267.868 144.705C267.969 144.664 268.07 144.619 268.171 144.575C268.475 144.443 268.778 144.307 269.078 144.171C269.281 144.077 269.48 143.985 269.679 143.891C269.995 143.739 270.308 143.585 270.62 143.43C270.699 143.389 270.775 143.348 270.851 143.31C271.05 143.209 271.249 143.105 271.452 143.004C271.771 142.834 272.09 142.663 272.406 142.487C272.513 142.43 272.618 142.37 272.725 142.31C273.073 142.115 273.417 141.916 273.758 141.714C274.514 141.263 275.258 140.792 275.993 140.301C276.176 140.181 276.359 140.054 276.539 139.931C276.881 139.698 277.216 139.458 277.551 139.218C277.585 139.193 277.617 139.168 277.652 139.146C277.819 139.023 277.987 138.9 278.154 138.774C278.502 138.512 278.846 138.247 279.191 137.976C279.197 137.972 279.207 137.963 279.216 137.957C279.371 137.834 279.526 137.71 279.677 137.587C280.148 137.206 280.613 136.818 281.068 136.417C281.292 136.225 281.513 136.026 281.731 135.827C281.896 135.679 282.06 135.531 282.221 135.379C282.547 135.073 282.866 134.77 283.182 134.461C283.34 134.31 283.495 134.152 283.653 133.994C283.808 133.836 283.966 133.679 284.121 133.518C284.174 133.464 284.228 133.407 284.282 133.351C284.44 133.183 284.598 133.013 284.756 132.846C284.892 132.701 285.024 132.549 285.16 132.398C285.388 132.146 285.618 131.893 285.843 131.638C285.855 131.623 285.867 131.61 285.881 131.597C285.893 131.581 285.906 131.568 285.915 131.556H285.912C290.506 126.253 293.919 120.037 295.925 113.319C297.932 106.601 298.486 99.534 297.552 92.586C296.618 85.6379 294.216 78.9671 290.506 73.0151C286.796 67.0631 281.862 61.9655 276.031 58.0598L276.03 58.0597Z" fill="#92DCE5"/>
<g opacity="0.15">
<path opacity="0.15" d="M212.067 20.8314C212.697 23.0903 213.645 25.2486 214.882 27.2418C212.811 25.4655 210.96 23.448 209.37 21.2323C210.263 21.0636 211.162 20.9299 212.067 20.8314Z" fill="black"/>
<path opacity="0.15" d="M181.231 55.766C178.892 57.0403 176.706 58.5749 174.713 60.3404C178.078 56.3679 180.537 51.7123 181.92 46.6964C181.937 46.6361 181.954 46.5755 181.97 46.5151L182.017 46.3444C183.68 40.3578 186.905 34.9194 191.363 30.5854L191.714 30.2444L191.961 30.6658C193.328 32.9857 194.963 35.137 196.834 37.0751C193.967 45.1493 188.39 51.8693 181.231 55.766Z" fill="black"/>
<path opacity="0.15" d="M197.705 34.2775L197.658 34.4482C197.641 34.5086 197.624 34.5692 197.608 34.6295C197.515 34.9615 197.417 35.2909 197.316 35.619C196.316 33.0341 195.614 30.3441 195.223 27.6008L195.187 27.3681L195.378 27.2313C197.783 25.5063 200.395 24.0889 203.153 23.0123C200.677 26.412 198.831 30.2275 197.705 34.2775Z" fill="black"/>
<path opacity="0.15" d="M165.544 67.8329C167.614 66.7018 169.551 65.3442 171.32 63.7852C167.787 67.8922 165.254 72.7603 163.92 78.008C162.586 83.2557 162.488 88.7404 163.633 94.0324C164.777 99.3245 167.134 104.28 170.518 108.511C173.902 112.741 178.221 116.132 183.138 118.418L183.297 118.492L183.457 118.42C186.112 117.222 188.912 116.373 191.786 115.895C189.992 116.807 188.32 117.94 186.809 119.268L186.297 119.709L186.939 119.921C187.492 120.104 188.046 120.272 188.584 120.421C191.747 121.3 195.017 121.737 198.3 121.719C213.216 121.623 228.248 125.066 242.978 131.951C245.504 133.13 248.124 134.096 250.811 134.841C262.521 138.096 275.022 136.925 285.921 131.553C279.776 138.647 271.742 143.856 262.75 146.574C253.759 149.292 244.179 149.408 235.124 146.908C232.437 146.163 229.817 145.196 227.291 144.018C212.561 137.133 197.529 133.69 182.613 133.785C179.33 133.804 176.06 133.367 172.897 132.488C172.359 132.339 171.805 132.17 171.252 131.988L170.61 131.776L171.122 131.335C172.633 130.007 174.305 128.874 176.099 127.962C173.225 128.44 170.425 129.289 167.77 130.487L167.61 130.558L167.45 130.485C161.546 127.741 156.522 123.414 152.939 117.987C149.355 112.559 147.352 106.243 147.155 99.7453C146.957 93.2474 148.572 86.8224 151.819 81.1873C155.066 75.5523 159.818 70.9288 165.544 67.8329L165.544 67.8329Z" fill="black"/>
</g>
</g>
<defs>
<clipPath id="clip0_5_76">
<rect width="298" height="251" fill="white"/>
</clipPath>
</defs>
</svg>
