<svg width="28" height="28" viewBox="0 0 28 28" fill="none" xmlns="http://www.w3.org/2000/svg">
<path d="M15.1667 14C15.1667 13.3556 14.6443 12.8333 14 12.8333C13.3557 12.8333 12.8333 13.3556 12.8333 14C12.8333 14.6443 13.3557 15.1666 14 15.1666C14.6443 15.1666 15.1667 14.6443 15.1667 14Z" stroke="white" stroke-width="2" stroke-linecap="round" stroke-linejoin="round"/>
<path d="M7 14C7 13.3556 6.47767 12.8333 5.83334 12.8333C5.18901 12.8333 4.66667 13.3556 4.66667 14C4.66667 14.6443 5.18901 15.1666 5.83334 15.1666C6.47767 15.1666 7 14.6443 7 14Z" stroke="white" stroke-width="2" stroke-linecap="round" stroke-linejoin="round"/>
<path d="M23.3333 14C23.3333 13.3556 22.811 12.8333 22.1667 12.8333C21.5223 12.8333 21 13.3556 21 14C21 14.6443 21.5223 15.1666 22.1667 15.1666C22.811 15.1666 23.3333 14.6443 23.3333 14Z" stroke="white" stroke-width="2" stroke-linecap="round" stroke-linejoin="round"/>
</svg>
